<svg xmlns="http://www.w3.org/2000/svg" width="10.59in" height="4.39in" viewBox="0 0 762.29 315.9">
  <defs>
    <style>
      .cls-1 {
        fill: #f7941d;
      }

      .cls-2 {
        fill: #922d7f;
      }

      .cls-3 {
        fill: #fff;
      }
    </style>
  </defs>
  <title>bass</title>
  <g id="base">
    <path class="cls-1" d="M841.42,322.21l-195.65,6.25A39,39,0,0,0,636.82,306L104.15,346.45V204.38l522-39.61a39,39,0,0,0,5.47-23.54L825.91,117.9c15.12-1.15,28.66,13.27,30.08,32L866.32,286C867.74,304.77,856.54,321.07,841.42,322.21Z" transform="translate(-104.15 -67)"/>
    <g>
      <rect class="cls-1" x="759.59" y="105.86" width="39.61" height="9.22" rx="4.61" transform="translate(726.42 -742.05) rotate(85.66)"/>
      <rect class="cls-1" x="677.14" y="112.11" width="39.61" height="9.22" rx="4.61" transform="translate(656.45 -654.05) rotate(85.66)"/>
      <rect class="cls-1" x="694.55" y="335.04" width="39.61" height="9.22" rx="4.61" transform="translate(325.58 1010.65) rotate(-94.34)"/>
      <rect class="cls-1" x="777" y="328.78" width="39.61" height="9.22" rx="4.61" transform="translate(420.51 1086.14) rotate(-94.34)"/>
    </g>
  </g>
  <g id="circles">
    <circle class="cls-2" cx="692.66" cy="211.3" r="14.36"/>
    <circle class="cls-2" cx="683.61" cy="98.7" r="14.36"/>
    <circle class="cls-2" cx="581.01" cy="97.43" r="14.36"/>
    <circle class="cls-2" cx="586.1" cy="232.84" r="14.36"/>
  </g>
  <g id="Our_Mission_String" data-name="Our Mission String">
    <path class="cls-3" d="M114.61,220.37l523.93-39.75,44.68-22.36c5.21-.39,9.76,3.15,10.12,7.88h0c.36,4.73-10.36,6.44-21.4,12.86l-32.09,18.81L115.91,237.57c-5.21.39-9.77-3.15-10.13-7.88h0C105.42,225,109.39,220.77,114.61,220.37Z" transform="translate(-104.15 -67)"/>
  </g>
  <g id="Our_Mission_Button" data-name="Our Mission Button">
    <rect class="cls-1" x="672.76" y="66.14" width="45.34" height="61.47" rx="17.77" transform="translate(635.27 -670.89) rotate(85.66)"/>
    <g>
      <path class="cls-2" d="M691,92.43a3,3,0,0,1-6,.46l-.22-3a3,3,0,0,1,6-.46Zm-2.24-2.2c-.07-.92-.17-1.48-1.05-1.41s-.91.63-.84,1.55L687,92.1c.07.92.18,1.47,1.06,1.41s.9-.64.83-1.56Z" transform="translate(-104.15 -67)"/>
      <path class="cls-2" d="M693.23,86.54a.33.33,0,0,1,.39.34l.35,4.68c.07.92.18,1.48,1.06,1.42s.9-.64.83-1.56l-.35-4.69a.31.31,0,0,1,.33-.38l1.34-.11a.33.33,0,0,1,.39.34l.4,5.32a3,3,0,0,1-6,.45l-.4-5.32a.32.32,0,0,1,.33-.38Z" transform="translate(-104.15 -67)"/>
      <path class="cls-2" d="M705.55,93.38a.42.42,0,0,1-.34.67l-1.36.11a.28.28,0,0,1-.29-.15l-1.43-2.31a.12.12,0,0,0-.1,0l-.48,0a.35.35,0,0,0-.34.4l.14,1.88a.35.35,0,0,1-.34.4l-1.34.1a.36.36,0,0,1-.4-.34l-.58-7.63a.37.37,0,0,1,.35-.4l2.62-.19c2.12-.17,3.05.68,3.2,2.64a2.65,2.65,0,0,1-.73,2.41.13.13,0,0,0,0,.16ZM701.27,88a.37.37,0,0,0-.34.4l.07.89a.35.35,0,0,0,.4.34l.61,0c.57,0,.85-.13.8-.88s-.35-.79-.93-.74Z" transform="translate(-104.15 -67)"/>
      <path class="cls-2" d="M676.88,100a.37.37,0,0,1,.41.29l1.11,3.42c0,.11.13.11.14,0l.59-3.55a.36.36,0,0,1,.36-.35l2.47-.19a.32.32,0,0,1,.39.33l.58,7.66a.32.32,0,0,1-.33.38l-1.34.1a.33.33,0,0,1-.39-.33l-.36-4.71c0-.08-.11-.09-.13,0l-.8,4.86a.37.37,0,0,1-.37.34l-.79.06A.37.37,0,0,1,678,108l-1.53-4.69c0-.08-.13-.06-.13,0l.36,4.71a.32.32,0,0,1-.33.38l-1.34.1a.32.32,0,0,1-.39-.33l-.58-7.65a.33.33,0,0,1,.34-.39Z" transform="translate(-104.15 -67)"/>
      <path class="cls-2" d="M685.2,99.34a.32.32,0,0,1,.38.34l.58,7.65a.32.32,0,0,1-.33.39l-1.31.1a.34.34,0,0,1-.39-.34l-.58-7.65a.32.32,0,0,1,.33-.39Z" transform="translate(-104.15 -67)"/>
      <path class="cls-2" d="M691.15,101.88c-.23.06-.36,0-.41-.27a1,1,0,0,0-1.11-.72c-.46,0-.73.33-.66.6.24.92,4,.61,4.22,3.36,0,.36-.22,2.5-3.05,2.72-2.51.19-3.17-1.42-3.31-2.35a.37.37,0,0,1,.29-.42l1.33-.4c.23-.06.37,0,.41.28a1,1,0,0,0,1.12.83c.59,0,1-.42.9-.74-.31-1-3.89-.5-4.1-3.25,0-.36,0-2.49,2.7-2.69,2.46-.19,3.16,1.37,3.29,2.23a.34.34,0,0,1-.28.41Z" transform="translate(-104.15 -67)"/>
      <path class="cls-2" d="M698,101.36a.3.3,0,0,1-.42-.27,1,1,0,0,0-1.1-.72c-.47,0-.73.33-.67.6.24.92,4,.61,4.23,3.36,0,.36-.22,2.51-3.06,2.72-2.51.19-3.17-1.42-3.3-2.35a.34.34,0,0,1,.28-.41l1.33-.41c.23-.06.37,0,.42.28a1,1,0,0,0,1.12.83c.58,0,1-.42.89-.74-.3-1-3.88-.5-4.09-3.25,0-.36,0-2.49,2.69-2.69,2.46-.19,3.16,1.37,3.3,2.23a.34.34,0,0,1-.28.41Z" transform="translate(-104.15 -67)"/>
      <path class="cls-2" d="M702.12,98.06a.31.31,0,0,1,.38.33l.58,7.66a.32.32,0,0,1-.33.38l-1.32.1a.32.32,0,0,1-.38-.33l-.58-7.65a.32.32,0,0,1,.33-.39Z" transform="translate(-104.15 -67)"/>
      <path class="cls-2" d="M710,103.18a3,3,0,0,1-6,.45l-.22-3a3,3,0,0,1,6-.45Zm-2.24-2.2c-.07-.92-.17-1.48-1-1.41s-.91.63-.84,1.55l.13,1.72c.07.92.18,1.48,1.06,1.41s.9-.63.83-1.55Z" transform="translate(-104.15 -67)"/>
      <path class="cls-2" d="M712.75,97.25a.42.42,0,0,1,.44.25l1.93,3.86c.06.1.15.07.14,0L715,97.45a.32.32,0,0,1,.33-.39l1.34-.1a.32.32,0,0,1,.39.33l.58,7.65a.33.33,0,0,1-.34.39l-1.75.13a.4.4,0,0,1-.44-.24l-1.93-3.86c-.06-.1-.15-.07-.14,0l.29,3.86a.32.32,0,0,1-.33.39l-1.34.1a.33.33,0,0,1-.39-.33l-.58-7.66a.32.32,0,0,1,.34-.38Z" transform="translate(-104.15 -67)"/>
    </g>
  </g>
  <g id="Statement_String" data-name="Statement String">
    <path class="cls-3" d="M115.64,248.81l624.54-47.16,43.66-43.26c6.19-.47,11.54,3,11.9,7.75h0c.36,4.73-12,10.69-20,17.84l-34.26,34.86L117,266c-6.19.46-11.54-3-11.9-7.75h0C104.7,253.53,109.46,249.28,115.64,248.81Z" transform="translate(-104.15 -67)"/>
  </g>
  <g id="Statement_Button" data-name="Statement Button">
    <rect class="cls-1" x="755" y="59.9" width="45.34" height="61.47" rx="17.77" transform="matrix(0.08, 1, -1, 0.08, 705.06, -758.66)"/>
    <g>
      <path class="cls-2" d="M764.77,84.1c-.24.07-.36,0-.42-.27a1,1,0,0,0-1.1-.72c-.47,0-.73.33-.66.6.24.92,4,.61,4.22,3.36,0,.36-.22,2.51-3,2.72-2.51.19-3.18-1.42-3.31-2.34a.35.35,0,0,1,.28-.42l1.33-.4c.24-.07.38,0,.42.28a1,1,0,0,0,1.12.83c.59,0,1-.43.9-.75-.31-1-3.89-.49-4.1-3.24a2.56,2.56,0,0,1,2.69-2.7c2.47-.19,3.16,1.37,3.3,2.23a.36.36,0,0,1-.28.42Z" transform="translate(-104.15 -67)"/>
      <path class="cls-2" d="M769.19,83.21a.32.32,0,0,0-.38-.33l-1.68.13a.33.33,0,0,1-.38-.34l-.11-1.33A.34.34,0,0,1,767,81l6.12-.47a.33.33,0,0,1,.39.34l.1,1.34a.33.33,0,0,1-.34.38l-1.67.13a.32.32,0,0,0-.33.38l.42,5.6a.32.32,0,0,1-.33.39l-1.34.1a.32.32,0,0,1-.38-.33Z" transform="translate(-104.15 -67)"/>
      <path class="cls-2" d="M780.46,87.94c0,.26-.09.41-.33.43l-1.33.1a.32.32,0,0,1-.39-.33l-.08-1a.32.32,0,0,0-.38-.33l-1,.08a.32.32,0,0,0-.34.38l.08,1a.32.32,0,0,1-.33.39l-1.34.1c-.22,0-.37-.12-.39-.38l-.38-5.07c-.12-1.51,0-3.13,2.69-3.33s3.05,1.38,3.17,2.88ZM778,83c0-.57-.15-.85-.94-.79s-.85.35-.8.92l.09,1.31a.33.33,0,0,0,.39.33l1-.08a.33.33,0,0,0,.33-.4Z" transform="translate(-104.15 -67)"/>
      <path class="cls-2" d="M782.86,82.17a.32.32,0,0,0-.39-.33L780.8,82a.33.33,0,0,1-.39-.33l-.1-1.34a.32.32,0,0,1,.33-.39l6.12-.46a.32.32,0,0,1,.39.33l.1,1.34a.32.32,0,0,1-.33.39l-1.67.12a.34.34,0,0,0-.34.39l.43,5.59A.32.32,0,0,1,785,88l-1.34.1a.33.33,0,0,1-.39-.33Z" transform="translate(-104.15 -67)"/>
      <path class="cls-2" d="M793.23,79a.32.32,0,0,1,.38.33l.1,1.34a.32.32,0,0,1-.33.38l-2.89.22a.32.32,0,0,0-.33.39l0,.38a.33.33,0,0,0,.39.33l1.85-.14a.32.32,0,0,1,.39.33l.1,1.34a.32.32,0,0,1-.33.39l-1.85.14a.34.34,0,0,0-.34.39l0,.38a.33.33,0,0,0,.39.33l2.9-.22a.32.32,0,0,1,.38.33l.1,1.34a.32.32,0,0,1-.33.39l-5,.38a.33.33,0,0,1-.39-.33l-.58-7.65a.32.32,0,0,1,.33-.39Z" transform="translate(-104.15 -67)"/>
      <path class="cls-2" d="M765.8,93.23a.37.37,0,0,1,.41.29l1.11,3.42c0,.12.13.11.14,0l.59-3.55a.37.37,0,0,1,.36-.35l2.47-.19a.33.33,0,0,1,.39.34l.58,7.65a.31.31,0,0,1-.33.38l-1.34.11a.34.34,0,0,1-.39-.34l-.36-4.71c0-.08-.11-.08-.13,0l-.8,4.86a.36.36,0,0,1-.37.34l-.79.06a.36.36,0,0,1-.41-.28l-1.53-4.68a.07.07,0,0,0-.13,0l.36,4.71a.32.32,0,0,1-.33.39l-1.34.1a.33.33,0,0,1-.39-.33L763,93.8a.32.32,0,0,1,.34-.38Z" transform="translate(-104.15 -67)"/>
      <path class="cls-2" d="M777.83,92.32a.32.32,0,0,1,.38.33l.1,1.34a.32.32,0,0,1-.33.38l-2.89.22a.34.34,0,0,0-.34.39l0,.38a.33.33,0,0,0,.39.33l1.85-.14a.32.32,0,0,1,.39.33l.1,1.34a.32.32,0,0,1-.33.39l-1.85.14a.34.34,0,0,0-.34.39l0,.38a.33.33,0,0,0,.39.33l2.89-.22a.32.32,0,0,1,.39.33l.1,1.34a.32.32,0,0,1-.33.39l-5,.38a.33.33,0,0,1-.39-.33l-.58-7.66a.32.32,0,0,1,.33-.38Z" transform="translate(-104.15 -67)"/>
      <path class="cls-2" d="M781.22,92.06a.4.4,0,0,1,.44.24l1.93,3.86c.06.11.15.07.14,0l-.29-3.86a.31.31,0,0,1,.33-.38l1.34-.11a.33.33,0,0,1,.39.34l.58,7.65c0,.23-.09.37-.33.38l-1.76.14a.42.42,0,0,1-.44-.24l-1.93-3.86c-.06-.11-.15-.08-.14,0l.29,3.87a.32.32,0,0,1-.33.38l-1.34.1a.33.33,0,0,1-.39-.33l-.58-7.65a.34.34,0,0,1,.34-.39Z" transform="translate(-104.15 -67)"/>
      <path class="cls-2" d="M788.77,93.92a.33.33,0,0,0-.39-.34l-1.67.13a.33.33,0,0,1-.39-.33l-.1-1.34a.32.32,0,0,1,.33-.39l6.12-.46a.32.32,0,0,1,.39.33l.1,1.34a.32.32,0,0,1-.33.39l-1.67.12a.33.33,0,0,0-.34.39l.43,5.6a.32.32,0,0,1-.33.38l-1.34.1a.33.33,0,0,1-.39-.33Z" transform="translate(-104.15 -67)"/>
    </g>
  </g>
  <g id="Staff_String" data-name="Staff String">
    <path class="cls-3" d="M117.3,296.27l626.54-47.16,49.69,36.17c6.18-.47,11-4.72,10.59-9.45h0c-.36-4.73-13.45-8.76-22.46-14.63l-39.13-29.29L116,279.07c-6.19.47-11,4.72-10.59,9.45h0C105.77,293.25,111.12,296.74,117.3,296.27Z" transform="translate(-104.15 -67)"/>
  </g>
  <g id="Staff_Button" data-name="Staff Button">
    <rect class="cls-1" x="775.86" y="322.25" width="45.34" height="61.47" rx="17.77" transform="translate(402.82 1108.94) rotate(-94.34)"/>
    <g>
      <path class="cls-2" d="M786.21,351.73c-.24.07-.37,0-.42-.27a1,1,0,0,0-1.1-.72c-.47,0-.74.33-.67.6.24.92,4,.61,4.23,3.36,0,.36-.22,2.51-3.06,2.72-2.51.2-3.17-1.42-3.3-2.34a.35.35,0,0,1,.28-.42l1.33-.4c.23-.07.37,0,.42.28a1,1,0,0,0,1.12.83c.58-.05,1-.43.89-.74-.3-1-3.89-.5-4.09-3.25,0-.36,0-2.49,2.69-2.7,2.46-.18,3.16,1.37,3.3,2.23a.36.36,0,0,1-.28.42Z" transform="translate(-104.15 -67)"/>
      <path class="cls-2" d="M790.63,350.84a.32.32,0,0,0-.39-.33l-1.67.13a.33.33,0,0,1-.39-.33l-.1-1.34a.32.32,0,0,1,.33-.39l6.13-.46a.32.32,0,0,1,.38.33l.1,1.34a.32.32,0,0,1-.33.38l-1.67.13a.32.32,0,0,0-.33.39l.42,5.59a.32.32,0,0,1-.33.39l-1.34.1a.33.33,0,0,1-.39-.33Z" transform="translate(-104.15 -67)"/>
      <path class="cls-2" d="M801.9,355.57c0,.26-.09.41-.33.43l-1.34.1a.31.31,0,0,1-.38-.33l-.08-1a.32.32,0,0,0-.39-.33l-1,.08a.32.32,0,0,0-.33.38l.08,1a.32.32,0,0,1-.33.39l-1.34.1c-.23,0-.37-.11-.39-.38l-.38-5.07c-.12-1.5,0-3.13,2.69-3.33s3,1.38,3.16,2.89Zm-2.44-4.92c-.05-.57-.15-.85-.94-.79s-.85.35-.81.93l.1,1.3a.33.33,0,0,0,.39.33l1-.08a.34.34,0,0,0,.33-.4Z" transform="translate(-104.15 -67)"/>
      <path class="cls-2" d="M807.94,347.1a.32.32,0,0,1,.38.33l.1,1.34a.32.32,0,0,1-.33.39l-3,.23a.31.31,0,0,0-.33.38l0,.38a.32.32,0,0,0,.38.33l2-.15a.33.33,0,0,1,.39.34l.1,1.34a.32.32,0,0,1-.33.38l-2,.15a.32.32,0,0,0-.33.39l.18,2.44a.31.31,0,0,1-.33.38l-1.41.11a.33.33,0,0,1-.39-.33l-.58-7.65a.33.33,0,0,1,.33-.39Z" transform="translate(-104.15 -67)"/>
      <path class="cls-2" d="M814.52,346.6a.31.31,0,0,1,.38.33l.11,1.34a.33.33,0,0,1-.34.39l-3,.23a.31.31,0,0,0-.33.38l0,.38a.32.32,0,0,0,.38.33l2-.15a.32.32,0,0,1,.38.34l.1,1.34a.32.32,0,0,1-.33.38l-2,.15a.32.32,0,0,0-.33.39l.18,2.44a.31.31,0,0,1-.33.38l-1.41.11a.33.33,0,0,1-.39-.33l-.58-7.65a.34.34,0,0,1,.34-.39Z" transform="translate(-104.15 -67)"/>
    </g>
  </g>
  <g id="Video_String" data-name="Video String">
    <path class="cls-3" d="M117.82,327.83,642,291.05l47.44,15.63c5.22-.37,9.21-4.54,8.88-9.27h0c-.33-4.73-11.19-4.87-23-9.61l-34.49-13.95L116.62,310.63c-5.22.36-9.21,4.53-8.88,9.26h0C108.07,324.62,112.61,328.19,117.82,327.83Z" transform="translate(-104.15 -67)"/>
  </g>
  <g id="Video_Button" data-name="Video Button">
    <rect class="cls-1" x="693.21" y="328.52" width="45.34" height="61.47" rx="17.77" transform="translate(307.67 1033.27) rotate(-94.34)"/>
    <g>
      <path class="cls-2" d="M702,355.94a.38.38,0,0,1,.42.28l1.4,4.52c0,.1.12.09.14,0l.7-4.67a.39.39,0,0,1,.37-.34l1.43-.11c.25,0,.38.12.34.38l-1.17,7.79a.36.36,0,0,1-.37.34l-2.22.17a.36.36,0,0,1-.42-.28l-2.33-7.53a.29.29,0,0,1,.28-.42Z" transform="translate(-104.15 -67)"/>
      <path class="cls-2" d="M709.25,355.39a.32.32,0,0,1,.39.33l.58,7.66a.33.33,0,0,1-.34.38l-1.31.1a.33.33,0,0,1-.39-.33l-.58-7.65a.33.33,0,0,1,.33-.39Z" transform="translate(-104.15 -67)"/>
      <path class="cls-2" d="M713.83,355c2.25-.17,3.06.69,3.21,2.65l.2,2.62c.15,2-.53,2.93-2.77,3.11l-2.67.2a.33.33,0,0,1-.38-.33l-.59-7.65a.33.33,0,0,1,.34-.39Zm.52,6.32c.57-.05.85-.17.8-.88,0,0-.2-2.62-.2-2.63-.06-.75-.35-.79-.93-.75l-.64,0a.32.32,0,0,0-.33.38l.27,3.54a.32.32,0,0,0,.38.33Z" transform="translate(-104.15 -67)"/>
      <path class="cls-2" d="M723.28,354.33a.32.32,0,0,1,.39.33l.1,1.34a.32.32,0,0,1-.33.38l-2.89.22a.34.34,0,0,0-.34.39l0,.38a.33.33,0,0,0,.39.33l1.85-.14a.32.32,0,0,1,.39.33l.1,1.34a.32.32,0,0,1-.33.39l-1.85.14a.33.33,0,0,0-.34.39l0,.38a.33.33,0,0,0,.39.33l2.89-.22a.32.32,0,0,1,.39.33l.1,1.34a.32.32,0,0,1-.33.39l-5,.38a.32.32,0,0,1-.38-.33l-.58-7.66a.32.32,0,0,1,.33-.38Z" transform="translate(-104.15 -67)"/>
      <path class="cls-2" d="M730.88,359.46a2.68,2.68,0,0,1-2.78,3.14c-2.84.21-3.16-1.89-3.22-2.68l-.23-3a3,3,0,0,1,6-.46Zm-2.24-2.2c-.06-.92-.17-1.48-1-1.41s-.9.64-.83,1.56l.13,1.72c.07.92.17,1.48,1.05,1.41s.91-.63.84-1.55Z" transform="translate(-104.15 -67)"/>
    </g>
  </g>
</svg>
