<svg xmlns="http://www.w3.org/2000/svg" width="129.35" height="534.23" viewBox="0 0 129.35 534.23">
  <defs>
    <style>
      .cls-1 {
        fill: #f7941d;
      }

      .cls-2 {
        fill: #922d7f;
      }

      .cls-3 {
        fill: #fff;
      }
    </style>
  </defs>
  <title>Asset 1</title>
  <g id="Layer_2" data-name="Layer 2">
    <g id="background">
      <path class="cls-1" d="M129.35,70.16A7.45,7.45,0,0,1,122,77.65l-4.1,0a7.44,7.44,0,0,1-7.49-7.36l0-3.49-4.47,0L105,93.17a16.3,16.3,0,0,0-9.62,3.11l1.82,438-59.25-4L36.12,96.76a16.26,16.26,0,0,0-9.66-3L25.1,67.61a1.75,1.75,0,0,1-.65.12l-5.15,0,0,3.5A7.45,7.45,0,0,1,12,78.75l-4.1,0A7.46,7.46,0,0,1,.37,71.42L.29,60.58a7.45,7.45,0,0,1,7.36-7.49l4.1,0a7.45,7.45,0,0,1,7.49,7.37l0,3.49,5.15,0h0a1.84,1.84,0,0,1,.47.06l-1.6-30.76-4.29,0,0,3.5a7.45,7.45,0,0,1-7.37,7.48l-4.1,0A7.46,7.46,0,0,1,.09,36.86L0,26a7.45,7.45,0,0,1,7.37-7.49l4.1,0A7.45,7.45,0,0,1,19,25.86l0,3.49,4.12,0-.9-17.22C22.16,5.76,28.56.53,36.43.46l57-.46c7.87-.07,14.35,5.07,14.4,11.4l-.61,17,2.8,0,0-3.5a7.45,7.45,0,0,1,7.37-7.48l4.1,0A7.46,7.46,0,0,1,129,24.76l.08,10.84a7.45,7.45,0,0,1-7.36,7.49l-4.1,0a7.45,7.45,0,0,1-7.49-7.36l0-3.5-3,0L106,63l4.31,0,0-3.49A7.45,7.45,0,0,1,117.67,52l4.1,0a7.45,7.45,0,0,1,7.49,7.36Z"/>
    </g>
    <g id="circles">
      <g>
        <circle class="cls-2" cx="89.01" cy="28.53" r="6"/>
        <circle class="cls-2" cx="41.79" cy="29.12" r="6"/>
        <circle class="cls-2" cx="38.37" cy="71.87" r="6"/>
        <circle class="cls-2" cx="94.99" cy="73.57" r="6"/>
      </g>
    </g>
    <g id="strings">
      <g>
        <path class="cls-3" d="M77.91,527.2l-2-477.29,16.49-19.7c0-2.6-1.66-4.7-3.64-4.69h0c-2,0-4,5.37-6.73,9L68.72,50l2,477.29c0,2.59,1.66,4.7,3.65,4.68h0C76.33,531.92,77.93,529.79,77.91,527.2Z"/>
        <path class="cls-3" d="M45.17,526.11,43.38,91.82,35.32,72.56a3.8,3.8,0,0,1,3.57-4h0c2,0,2.39,4.5,4.76,9.28l6.94,13.92,1.79,434.29a3.81,3.81,0,0,1-3.57,4h0A3.8,3.8,0,0,1,45.17,526.11Z"/>
        <path class="cls-3" d="M58,526.53,56,50.07,39.16,30.64c0-2.59,1.59-4.73,3.57-4.74h0c2,0,4.12,5.29,6.88,8.84L63.18,50l2,476.46c0,2.59-1.59,4.72-3.57,4.74h0C59.67,531.23,58,529.12,58,526.53Z"/>
        <path class="cls-3" d="M90.05,527.87,89.51,93.58l7.85-19.35a3.8,3.8,0,0,0-3.61-4h0c-2,0-2.35,4.52-4.66,9.33l-6.79,14,.54,434.3a3.82,3.82,0,0,0,3.61,4h0A3.82,3.82,0,0,0,90.05,527.87Z"/>
      </g>
    </g>
  </g>
</svg>
