<svg xmlns="http://www.w3.org/2000/svg" width="222.66" height="308.09" viewBox="0 0 222.66 308.09">
  <defs>
    <style>
      .cls-1 {
        fill: #f7941d;
      }

      .cls-2 {
        fill: #fff;
      }
    </style>
  </defs>
  <title>Asset 3</title>
  <g id="Layer_2" data-name="Layer 2">
    <g id="bassplayer">
      <g>
        <path class="cls-1" d="M207.48,95.35c-6.9-4.77-14.58-8.22-22.32-11.37-8.3-3.38-17.23-7.51-26.26-8.09-4.41-.28-8.68,1-13.06.92-4-.08-7-2.74-10.68-4-10.57-3.73-17,2.09-21.18,10.28a70.12,70.12,0,0,0-12.4,27.12c-1,4.27-1.2,9.1-6.15,9.9A58.4,58.4,0,0,1,73.71,119c-6.77-1.5-11.16,5.09-8.47,11,6.18,13.62,23.05,18.52,35.91,11.44a32.64,32.64,0,0,0,11.47-10.69c-1.78,7.56-3.51,15.13-5.12,22.72-1,4.71-1,9.36,3,12.64A260.5,260.5,0,0,0,99.19,301.28c.92,5.08,7.07,6.44,11,4.48,5.2-2.58,6.22-8.11,6.51-13.4a168.79,168.79,0,0,0-.25-18.41c-.65-12.27-1.77-24.64-.1-36.88,2.49-18.25,9.69-35.36,18.19-51.62A603.89,603.89,0,0,0,146,302.81c1.2,6.12,8.53,6.48,12.53,3.31,8.1-6.4,5-16.85,2.83-25.65q-1.92-15-2.85-30.16c.08-3.54.25-7.09.47-10.61,1.48-23.53,5.11-46.82,2.08-70.29a6.75,6.75,0,0,0,4-4.72q2-12,4.34-24c1.3,4.63,6.39,6.71,11,4.52,8.44-4.06,16.71-8.47,24.74-13.3,6.26-3.76,16.24-8,17.36-16.19C223.81,106.64,214,99.87,207.48,95.35Zm-8.88,21.42a11.1,11.1,0,0,1-3.33,3.59c-.81.47-1.6,1-2.4,1.42-7,3.45-17.09,4-21.51,9.46q2.77-13.7,6-27.32a64.83,64.83,0,0,1,16.29,4.35,4.92,4.92,0,0,0,1,.27C197.79,110.63,200.52,113.36,198.6,116.77Z"/>
        <g id="jrmjCA">
          <g>
            <path d="M206.48,179.42c-1.26,1.91-2.46,3.87-3.8,5.71-3.41,4.69-7.41,8.78-12.81,11.11-7,3-13.94,3-20.67-1.05-4.51-2.76-7.51-6.92-10.57-11-1.72-2.31-3.27-4.74-5-7-3.41-4.36-8.22-6.31-13.44-7.28-3.4-.63-6.86-.87-10.29-1.38A43.88,43.88,0,0,1,115.12,164c-2.79-1.5-5.47-3.18-7.33-5.83a15.24,15.24,0,0,1-1.64-3.31,2,2,0,0,1,.56-2.35,2.4,2.4,0,0,1,2.64-.23c2,.8,3.91,1.77,5.94,2.39a45.87,45.87,0,0,0,13.4,2.32,9.25,9.25,0,0,0,4.94-1.13,4.67,4.67,0,0,0,2.45-3.75,3.12,3.12,0,0,0-1.48-3,20.62,20.62,0,0,0-2.32-1.35L87,124.74,47.87,104.89q-9.16-4.65-18.35-9.25a5.92,5.92,0,0,0-7.09.94c-2.21,1.94-2.21,1.94-4-.37l-1.15-1.4a5.34,5.34,0,0,0-.32,1.7c.19.9.61,1.75.84,2.65.09.36.09,1-.12,1.13a1.57,1.57,0,0,1-1.26.09,42.89,42.89,0,0,1-4-1.71,1.59,1.59,0,0,1-.84-1.06c0-.36.47-.85.86-1,.61-.29,1.38-.27,2-.57a2.29,2.29,0,0,0,.73-3.87c-1.45-1.5-3-2.92-4.45-4.37-1.6,1.61-1.74,2.4-.93,4.24.08.18.23.36.22.54,0,.57-.1,1.15-.15,1.72a8.07,8.07,0,0,1-1.58-.35,30.92,30.92,0,0,1-3.3-1.67C4.51,92,4,91.4,4,91a1.52,1.52,0,0,1,1.14-1,3.17,3.17,0,0,0,3.28-2.57A1.11,1.11,0,0,0,7.88,86c-1.81-1.06-3.6-2.15-5.45-3.15C.87,82,.9,81.79,1.21,80.07a12.87,12.87,0,0,0-.14-3.91c-.28-2-.71-4-1.07-6l.51-1c1.27.72,2.51,1.47,3.8,2.16,2.12,1.13,4.27,2.22,6.42,3.31.66.34,1,0,1-.63-.12-.89-.47-1.76-.66-2.64-.11-.52-.34-1.21-.11-1.55.42-.62,1.08-.44,1.75-.06.92.53,2,.83,2.91,1.34A8.6,8.6,0,0,1,17,72.18a5.52,5.52,0,0,1-1.28,1.15c-1.07.48-2.32.66-2.89,2.35,2.49.55,4.85,1.13,7.23,1.57.83.16,1.62-.9,1.39-1.84-.17-.7-.66-1.31-.87-2A5.37,5.37,0,0,1,20.52,72a4.68,4.68,0,0,1,1.67,0,35.45,35.45,0,0,1,3.49,1.74,6.27,6.27,0,0,1,1,.81,5.42,5.42,0,0,1-.94,1.07c-.37.24-.92.2-1.33.4-.66.32-1.27.73-1.9,1.11l.14.41c1.37,0,2.75,0,4.12,0,1.68,0,2.07.33,2,2-.23,4,1.18,6.48,4.84,8.2q22.08,10.37,44.18,20.7Q89.38,113.89,101,119.3q23.81,11.08,47.63,22.14a17.29,17.29,0,0,0,5.12,1.48,8,8,0,0,0,3.93-.66,4.81,4.81,0,0,0,2.53-6.17,14.65,14.65,0,0,0-4.45-6c-1-.9-2.06-1.65-3.06-2.52s-1.07-1.86.07-2.81a4.51,4.51,0,0,1,3.86-.84,15.53,15.53,0,0,1,8,4.25c2,1.85,4,3.72,5.84,5.7a12.91,12.91,0,0,0,11.87,4c3-.42,6-1,9-1.4a20.82,20.82,0,0,1,12,1.46c5.82,2.69,8.83,7.57,9.94,13.67s0,11.77-2,17.42c-.11.32-.17.67-.25,1ZM193,176.32l-.08-.25c.51-.23,1.16-.8,1.52-.65,1.92.8,3.78,1.78,5.74,2.73-.52,1-.92,1.84-1.29,2.64-.27.6-.63.68-1.19.39-1.57-.79-3.16-1.51-4.7-2.34a1.44,1.44,0,0,1-.55-1c-.06-.61-1.44-1.65-1.81-1.22a4.73,4.73,0,0,0-1,2.14c-.06.32.56.95,1,1.17,2.34,1.15,4.71,2.22,7.07,3.32,1.67.78,1.9.72,2.69-.92q3.32-6.81,6.6-13.65c.16-.31.25-.65.39-1,.39-.94.09-1.52-.84-1.94-2.31-1-4.59-2.11-6.87-3.19-2.13-1-2.23-1-3.16,1.16a.24.24,0,0,0-.05.1c0,.36.09.72.13,1.08.29-.16.57-.34.86-.48s.76-.5,1-.4q3.21,1.39,6.35,2.94a1,1,0,0,1,.36.9c-.36.92-.84,1.8-1.3,2.74-2.42-1.19-4.73-2.29-7-3.45-.19-.1-.2-.57-.31-.85s-.24-.48-.36-.72c-.23.13-.58.2-.69.4-.4.69-.73,1.43-1.08,2.16l1.39.68c.36-1.37,1.09-1.24,2-.72,1.16.64,2.38,1.17,3.57,1.74,2.41,1.16,2.37,1.14,1.21,3.52-.43.89-.88.9-1.64.49-1.81-1-3.65-1.91-5.47-2.87a3.15,3.15,0,0,1-.44-.33l.19-1.1-1.16-.49-1.33,2.7c.79.53,1.46,1.19,2.11-.07.09-.17.71-.2,1-.08,1.25.53,2.46,1.15,3.69,1.73,2.59,1.22,2.57,1.21,1.23,3.76-.36.68-.7.8-1.37.45-1.65-.87-3.33-1.68-5-2.52-.5-.25-1-.48-.72-1.23.06-.2-.3-.64-.56-.8a1,1,0,0,0-.92,0c-1.36,1.12-1.16,2.57.41,3.24A3.45,3.45,0,0,0,193,176.32ZM189.83,167c-2-1-3.94-1.95-6-2.87a1.19,1.19,0,0,0-1,.36,6.31,6.31,0,0,0-.61,1.12c-.44.71-.2,1.1.51,1.43,1.24.56,2.45,1.19,3.66,1.79,2.48,1.21,2.59,1.16,3.4-1.54A1.4,1.4,0,0,0,189.83,167Zm-1.32-5.11,0,0-1.68-.81c-1.89-.91-1.85-.89-2.77,1-.41.81-.19,1.16.56,1.49,1.31.58,2.59,1.24,3.88,1.87,2.06,1,2,1,2.94-1.14.29-.68.11-1-.5-1.25C190.1,162.68,189.31,162.26,188.51,161.87Zm-14.22-11.1h0l-1.46-.72c-2.1-1-2.07-1-3,1.12-.35.76-.14,1.1.57,1.41,1.35.57,2.69,1.2,4,1.82,2.25,1.06,1.65.93,2.78-1,.43-.72.2-1.22-.56-1.56S175.05,151.14,174.29,150.77Zm-6.72,13.88,0,0c-.88-.43-1.77-.83-2.62-1.29-.6-.32-1-.28-1.32.36s-1.12,1.63-.25,2.16a37.72,37.72,0,0,0,5.75,2.8c1.15.45,1.15-.84,1.53-1.48s.15-1-.48-1.26C169.31,165.53,168.45,165.08,167.57,164.65ZM185,169h0l-1.88-.92c-1.66-.81-1.62-.79-2.45.86-.39.79-.23,1.16.54,1.52,1.62.75,3.22,1.56,4.8,2.41.8.43,1.29.34,1.58-.56a1.78,1.78,0,0,1,.25-.52c.52-.78.42-1.31-.53-1.67S185.73,169.36,185,169Zm-13.85-11.93v0c.84.4,1.69.78,2.51,1.23s1.23.38,1.51-.5a4.56,4.56,0,0,1,.39-.84c.37-.64.26-1-.45-1.35q-2.55-1.14-5-2.4c-.71-.35-1.16-.27-1.45.49a6.81,6.81,0,0,1-.46.94c-.38.63-.16,1,.47,1.25C169.45,156.21,170.27,156.64,171.11,157.05Zm17.4,4.11.05-.1c.83.4,1.69.77,2.5,1.23s1.28.14,1.56-.65,1-1.56-.29-2.13c-1.59-.73-3.16-1.48-4.73-2.22s-1.43.68-1.89,1.36-.15,1.15.6,1.45S187.78,160.8,188.51,161.16ZM168,163.73l0,.05c.9.44,1.81.87,2.71,1.33s1.09-.26,1.29-.81,1-1.18-.09-1.71q-2.72-1.31-5.42-2.66c-1-.5-1.11.33-1.37.87s-.83,1.16.18,1.61S167.12,163.29,168,163.73Zm2.84-5.91,0,0-2.72-1.33c-.89-.44-1.09.28-1.32.83s-1,1.16,0,1.66c1.84.93,3.68,1.85,5.55,2.71.24.11.75-.11,1-.33s.33-.69.53-1c.36-.61.21-1-.42-1.29C172.59,158.69,171.73,158.25,170.86,157.82Zm8.76,13a11,11,0,0,0-.68,1.83,1.14,1.14,0,0,0,.36,1c1.79.93,3.58,1.85,5.43,2.64,1,.44,1.13-.64,1.48-1.22s.37-.83-.24-1.13C183.91,172.91,181.86,171.9,179.62,170.8ZM17.71,80.22a2.19,2.19,0,1,0,2.95-1A2.18,2.18,0,0,0,17.71,80.22Zm-5.8,1.93A2.14,2.14,0,0,0,9,83.2a2.19,2.19,0,0,0,3.95,1.89A2.13,2.13,0,0,0,11.91,82.15Zm7.83,5.9a2.18,2.18,0,0,0-2.94,1.06,2.27,2.27,0,0,0,1,2.89,2.19,2.19,0,0,0,3-1A2.11,2.11,0,0,0,19.74,88.05Zm-9-11.41a2.19,2.19,0,0,0-2.89,1,2.29,2.29,0,0,0,1,3,2.3,2.3,0,0,0,3-1A2.18,2.18,0,0,0,10.78,76.64Zm181.37,74.75a2.17,2.17,0,0,0,3.91,1.9,2.17,2.17,0,1,0-3.91-1.9Zm9.53,7a2,2,0,0,0,2.84-1,2.14,2.14,0,1,0-3.85-1.86A2.05,2.05,0,0,0,201.68,158.38Z"/>
            <path class="cls-2" d="M193,176.32a3.45,3.45,0,0,1-.43-.12c-1.57-.67-1.77-2.12-.41-3.24a1,1,0,0,1,.92,0c.26.16.62.6.56.8-.24.75.22,1,.72,1.23,1.67.84,3.35,1.65,5,2.52.67.35,1,.23,1.37-.45,1.34-2.55,1.36-2.54-1.23-3.76-1.23-.58-2.44-1.2-3.69-1.73-.28-.12-.9-.09-1,.08-.65,1.26-1.32.6-2.11.07l1.33-2.7,1.16.49-.19,1.1a3.15,3.15,0,0,0,.44.33c1.82,1,3.66,1.89,5.47,2.87.76.41,1.21.4,1.64-.49,1.16-2.38,1.2-2.36-1.21-3.52-1.19-.57-2.41-1.1-3.57-1.74-.94-.52-1.67-.65-2,.72l-1.39-.68c.35-.73.68-1.47,1.08-2.16.11-.2.46-.27.69-.4.12.24.26.47.36.72s.12.75.31.85c2.28,1.16,4.59,2.26,7,3.45.46-.94.94-1.82,1.3-2.74a1,1,0,0,0-.36-.9q-3.13-1.54-6.35-2.94c-.22-.1-.65.24-1,.4s-.57.32-.86.48c0-.36-.09-.72-.13-1.08a.24.24,0,0,1,.05-.1c.93-2.14,1-2.17,3.16-1.16,2.28,1.08,4.56,2.16,6.87,3.19.93.42,1.23,1,.84,1.94-.14.32-.23.66-.39,1q-3.28,6.83-6.6,13.65c-.79,1.64-1,1.7-2.69.92-2.36-1.1-4.73-2.17-7.07-3.32-.45-.22-1.07-.85-1-1.17a4.73,4.73,0,0,1,1-2.14c.37-.43,1.75.61,1.81,1.22a1.44,1.44,0,0,0,.55,1c1.54.83,3.13,1.55,4.7,2.34.56.29.92.21,1.19-.39.37-.8.77-1.59,1.29-2.64-2-1-3.82-1.93-5.74-2.73-.36-.15-1,.42-1.52.65Z"/>
            <path class="cls-2" d="M189.83,167a1.4,1.4,0,0,1,0,.29c-.81,2.7-.92,2.75-3.4,1.54-1.21-.6-2.42-1.23-3.66-1.79-.71-.33-.95-.72-.51-1.43a6.31,6.31,0,0,1,.61-1.12,1.19,1.19,0,0,1,1-.36C185.89,165,187.87,166,189.83,167Z"/>
            <path class="cls-2" d="M188.51,161.87c.8.39,1.59.81,2.41,1.17.61.27.79.57.5,1.25-.9,2.12-.88,2.13-2.94,1.14-1.29-.63-2.57-1.29-3.88-1.87-.75-.33-1-.68-.56-1.49.92-1.86.88-1.88,2.77-1l1.68.81Z"/>
            <path class="cls-2" d="M174.29,150.77c.76.37,1.52.77,2.3,1.11s1,.84.56,1.56c-1.13,1.9-.53,2-2.78,1-1.33-.62-2.67-1.25-4-1.82-.71-.31-.92-.65-.57-1.41,1-2.11.94-2.13,3-1.12l1.46.72Z"/>
            <path class="cls-2" d="M167.57,164.65c.88.43,1.74.88,2.63,1.27.63.28.84.65.48,1.26s-.38,1.93-1.53,1.48a37.72,37.72,0,0,1-5.75-2.8c-.87-.53-.08-1.45.25-2.16s.72-.68,1.32-.36c.85.46,1.74.86,2.62,1.29Z"/>
            <path class="cls-2" d="M185,169c.77.38,1.51.81,2.31,1.11s1,.89.53,1.67a1.78,1.78,0,0,0-.25.52c-.29.9-.78,1-1.58.56-1.58-.85-3.18-1.66-4.8-2.41-.77-.36-.93-.73-.54-1.52.83-1.65.79-1.67,2.45-.86L185,169Z"/>
            <path class="cls-2" d="M171.11,157.05c-.84-.41-1.66-.84-2.51-1.21-.63-.28-.85-.62-.47-1.25a6.81,6.81,0,0,0,.46-.94c.29-.76.74-.84,1.45-.49q2.49,1.26,5,2.4c.71.32.82.71.45,1.35a4.56,4.56,0,0,0-.39.84c-.28.88-.79.89-1.51.5s-1.67-.83-2.51-1.23Z"/>
            <path class="cls-2" d="M188.51,161.16c-.73-.36-1.44-.76-2.2-1.06s-1.12-.67-.6-1.45.45-2,1.89-1.36,3.14,1.49,4.73,2.22c1.25.57.56,1.38.29,2.13s-.7,1.15-1.56.65-1.67-.83-2.5-1.23Z"/>
            <path class="cls-2" d="M168,163.73c-.9-.44-1.8-.91-2.72-1.32s-.46-1.06-.18-1.61.39-1.37,1.37-.87q2.7,1.35,5.42,2.66c1.11.53.3,1.16.09,1.71s-.39,1.28-1.29.81-1.81-.89-2.71-1.33Z"/>
            <path class="cls-2" d="M170.86,157.82c.87.43,1.73.87,2.62,1.27.63.29.78.68.42,1.29-.2.33-.27.77-.53,1s-.75.44-1,.33c-1.87-.86-3.71-1.78-5.55-2.71-1-.5-.25-1.13,0-1.66s.43-1.27,1.32-.83l2.72,1.33Z"/>
            <path class="cls-2" d="M179.62,170.8c2.24,1.1,4.29,2.11,6.35,3.09.61.3.5.69.24,1.13s-.45,1.66-1.48,1.22c-1.85-.79-3.64-1.71-5.43-2.64a1.14,1.14,0,0,1-.36-1A11,11,0,0,1,179.62,170.8Z"/>
            <path class="cls-2" d="M17.71,80.22a2.18,2.18,0,0,1,2.95-1,2.19,2.19,0,1,1-2.95,1Z"/>
            <path class="cls-2" d="M11.91,82.15a2.13,2.13,0,0,1,1,2.94A2.19,2.19,0,0,1,9,83.2,2.14,2.14,0,0,1,11.91,82.15Z"/>
            <path class="cls-2" d="M19.74,88.05A2.11,2.11,0,0,1,20.79,91a2.19,2.19,0,0,1-3,1,2.27,2.27,0,0,1-1-2.89A2.18,2.18,0,0,1,19.74,88.05Z"/>
            <path class="cls-2" d="M10.78,76.64a2.18,2.18,0,0,1,1.1,2.93,2.3,2.3,0,0,1-3,1,2.29,2.29,0,0,1-1-3A2.19,2.19,0,0,1,10.78,76.64Z"/>
            <path class="cls-2" d="M192.15,151.39a2.17,2.17,0,1,1,3.91,1.9,2.17,2.17,0,0,1-3.91-1.9Z"/>
            <path class="cls-2" d="M201.68,158.38a2.05,2.05,0,0,1-1-2.83,2.14,2.14,0,1,1,3.85,1.86A2,2,0,0,1,201.68,158.38Z"/>
          </g>
        </g>
        <path class="cls-1" d="M190.92,122.7q-2.88,1.74-5.7,3.56a7,7,0,0,0-4.89-.19,21.47,21.47,0,0,0-8.82,4.9c-2.24,2.15-3.36,5.06-5.36,7.34-5.53,6.33,1.37,15.95,9.09,11.78a110.83,110.83,0,0,0,11-6.56c4-2.76,8.07-5.37,12.22-7.87C206.75,130.67,199.22,117.7,190.92,122.7Z"/>
        <path class="cls-1" d="M81.64,120.31l-.09-.12a17.74,17.74,0,0,0-.24-4.35c-.36-2.49-3-4.61-5.24-5.24s-5.61-.06-7.3,1.93a19.49,19.49,0,0,0-4.94,12.56c-.06,3.93,3.5,7.68,7.5,7.5a8.17,8.17,0,0,0,3.63-1,7.29,7.29,0,0,0,4-1C82,128.6,84.19,123.65,81.64,120.31Z"/>
        <circle class="cls-1" cx="149.35" cy="40.77" r="29.58"/>
        <circle class="cls-2" cx="137.08" cy="47.24" r="6.47"/>
        <path class="cls-1" d="M178.3,34.8a20.12,20.12,0,0,0-4.59-21,10.12,10.12,0,0,0-2.83-2.07,13.75,13.75,0,0,0-6-.77l-14.82.3c-5.64.11-11.37.21-16.81-1.29s-10.63-4.88-13-10c-4.06,8.85-1.91,20,4.65,27.18s17,10.39,26.6,8.83c4.08-.65,8-2.09,12-2.94s8.39-1.09,12.17.58a22.37,22.37,0,0,0,2.71,1.17"/>
        <path class="cls-1" d="M154,11.08l-7.31-.28c-6.15-.24-12.89-.72-17.32-5A19.37,19.37,0,0,0,132.81,13"/>
        <path class="cls-1" d="M169.5,12.07l-6-.24c-5.07-.19-10.62-.59-14.27-4.1a16.09,16.09,0,0,0,2.85,5.9"/>
      </g>
    </g>
  </g>
</svg>
