<svg xmlns="http://www.w3.org/2000/svg" width="117.62" height="152.27" viewBox="0 0 117.62 152.27">
  <defs>
    <style>
      .cls-1 {
        fill: #ea5456;
      }
    </style>
  </defs>
  <title>Asset 2</title>
  <g id="Layer_2" data-name="Layer 2">
    <g id="Layer_1-2" data-name="Layer 1">
      <g id="H6kCiN.tif">
        <g>
          <path class="cls-1" d="M55.38,58.87a57,57,0,0,1-1.9,8.2,8.1,8.1,0,0,1-7.73,5.46c-3.91.17-7.77-.32-10.47-3.41a11.89,11.89,0,0,1-2.19-5.4,79,79,0,0,1-1.56-10.91A35,35,0,0,1,32.08,44c.88-4.56,2.94-6.59,8.48-6.9,3.14-.18,6.61-.12,9.4,1.07,1.87.8,2.95,3.7,4.11,5.81a8.64,8.64,0,0,1,.58,3.45C54.9,50.8,55.08,54.15,55.38,58.87Zm-7-4.56c-.43-2.85-.81-6.88-1.72-10.78-.36-1.57-.92-3.82-3.34-3.82-1.63,0-3.92,2.82-4.23,4.88,0,.08,0,.17,0,.25-1.42,4-.91,8.15-.42,12.17a79.51,79.51,0,0,0,2.57,11.22,3.33,3.33,0,0,0,1.9,1.49c1.66-1.37,4-2.69,4.5-4.48C48.44,62.16,48.11,58.75,48.34,54.31Z" transform="translate(0 0)"/>
          <path class="cls-1" d="M11.57,62.84c.19,3.16.49,6,.45,8.88,0,.84-1.12,2.45-1.47,2.38C9,73.8,6.41,75.37,6,72.29c-.28-2.33-.39-4.69-.56-7-.6-7.87-1.17-15.75-1.82-23.62-.19-2.29.45-3.47,3-3.43,4.33.08,8.67-.16,13-.09,2.8,0,5.22,1.75,4.63,3.86-1.16,4.12.44,8.76-2.55,12.51a5.13,5.13,0,0,0-1.23,3.65c.34,1.58,1.63,2.93,2.38,4.44,1.21,2.46,2.43,4.94,3.39,7.5.35.91,0,2.09-.08,3.15-1.51-.91-3.63,1.4-4.89-1C19.6,69,17.75,65.82,16,62.59c-.41-.78-.34-1.83-.79-2.57-.58-.94-1.41-2.34-2.23-2.4-1.64-.14-1.79,1.4-1.68,2.75C11.42,61.3,11.51,62.22,11.57,62.84Zm5.8-14.46c.06-3.85-1.15-6-3.93-7.14-1.94-.82-3.33-.15-3.29,1.9a90.4,90.4,0,0,0,.72,10.27c.08.66,1.43,1.16,2.2,1.73C14.14,52.58,18.15,51.82,17.37,48.38Z" transform="translate(0 0)"/>
          <path class="cls-1" d="M100.11,116.33c4.94-.81,10.1,2.69,10.53,6.78.19,1.84-.28,3.22-1.85,3.6s-3.72,1.86-5.16-.57c-.56-.94-.88-2.14-1.67-2.8s-2.32-1.61-3.23-1.37c-1.58.43-2.29,3.24-1.22,4.5a27.34,27.34,0,0,0,4.62,4.1c2,1.47,4.4,2.47,6.26,4.09,5,4.34,4,12.43-2.06,15-7,2.92-12.63,2.15-16.68-4.35-.65-1.05-1-3.48-.5-3.82a9.58,9.58,0,0,1,5-1.52c.82,0,1.66,1.49,2.48,2.31,0,0,0,.17,0,.25.68,1.84,1.4,3.82,3.74,3.82a3.41,3.41,0,0,0,2.43-1.6c1.15-2.1,1-4.44-.83-6a44.93,44.93,0,0,0-7.82-5.46c-4.44-2.4-5.22-6.29-5-10.7.13-2.36,3-5,5.86-5.51C96.78,116.72,98.45,116.56,100.11,116.33Z" transform="translate(0 0)"/>
          <path class="cls-1" d="M49.15,136c0,4.63.11,8.25-.06,11.85a4.8,4.8,0,0,1-1.36,3.27c-1.7,1.27-3.94-.37-4-2.85-.09-2.19,0-4.39,0-6.58,0-7.68-.05-15.35-.05-23,0-3.37.73-4,4.07-3.68,2.67.28,5.34.61,8,1,2.84.46,5.27,3.51,5.56,7,.33,3.93,0,7.72-2.53,11a3.6,3.6,0,0,0-.07,2.89c1.14,3.11,2.5,6.14,3.77,9.21a2.62,2.62,0,0,1,.32.94c0,1.72.63,3.93-1.7,4.44s-3.05-1.31-3.73-3.21a106.35,106.35,0,0,0-4.36-10.66C52.55,137,50.86,136.77,49.15,136Zm2.44-16.12c-1.59-.32-2.4.44-2.38,2.15a21.55,21.55,0,0,0,.1,3.51c.2,1.22.36,3,1.14,3.45,1.53.81,2.8-.21,3.23-2,0-.12.24-.24.39-.28,2.43-.6,1.92-2.47,1.57-4C55.2,120.77,53.72,119.89,51.59,119.91Z" transform="translate(0 0)"/>
          <path class="cls-1" d="M14.78,136c-1.5-.22-2.86-.13-3.9-.66-.85-.42-1.33-1.59-2-2.43.93-.7,1.78-1.84,2.8-2a39,39,0,0,1,6.22-.25c2.92-.05,4.38,1.51,4.24,4.34S22,140.33,21.9,143c-.1,2.51-.72,4.18-3.43,5.67-5.23,2.88-9.68,1.3-13.82-1.39A10.07,10.07,0,0,1,.87,141c-.95-5.87-1.42-11.84.16-17.78a9.59,9.59,0,0,1,12.15-7,32.84,32.84,0,0,1,5.56,2.37c1.5.79,2.63,2.15,1.78,3.93s-2.54,1.62-4.11.78a10.25,10.25,0,0,1-1.84-1.28c-2.22-2-5.76-1.14-6.31,1.78a44.86,44.86,0,0,0,.08,18.71c.54,2.32,2.05,2.81,4.36,2.4s2.1-1.76,2.08-3.32C14.76,139.73,14.78,137.82,14.78,136Z" transform="translate(0 0)"/>
          <path class="cls-1" d="M61.6,86.63,55.79,99l-.68-.21q-2-5.7-3.92-11.41l-1.2.22c0,5.85.1,11.71-.07,17.56a14,14,0,0,1-1.43,4.67,1.77,1.77,0,0,1-1.49.9,2,2,0,0,1-1.18-1.37,11.67,11.67,0,0,1-.24-3c.15-6.57.37-13.13.49-19.69,0-1.5-.35-3-.37-4.51,0-3.46,1.8-5,5.21-4.51a2.33,2.33,0,0,1,2.35,2.06c.74,3.3,1.87,6.5,2.84,9.75l.89,0c.75-2.34,1.69-4.64,2.23-7,.69-3.07,3.12-4,5.56-4.71,1.86-.53,2.13,1.14,2.08,2.59-.17,4.12-.38,8.24-.54,12.36-.17,4.45-.21,8.9-.51,13.34a10,10,0,0,1-1.41,3.82,2.09,2.09,0,0,1-1.71.88c-.36,0-.87-1-.89-1.57-.14-3.42-.17-6.85-.19-10.28C61.58,95,61.6,91.09,61.6,86.63Z" transform="translate(0 0)"/>
          <path class="cls-1" d="M81.71,145.81a18.87,18.87,0,0,1,3.53.06,3.11,3.11,0,0,1,2.1,1.29c.84,2.07-2.09,5.28-4.35,5.11-3.42-.27-6.86-.52-10.29-.54-4.14,0-5.94-2-5.7-6.69.2-3.87.69-7.71.81-11.57.13-4-.19-8,0-12a15,15,0,0,1,1.65-5.62,3,3,0,0,1,2.79-.81,4.12,4.12,0,0,1,2.14,2.67,49.69,49.69,0,0,1,0,7.32c-.23,6.35-.54,12.69-.67,19,0,.51,1,1.4,1.7,1.49,2.07.3,4.19.3,6.29.41Z" transform="translate(0 0)"/>
          <path class="cls-1" d="M77.4,103.43c0,.68-.08,2,0,3.37.18,2.37-2.26,2.79-3.12,4.37-.59-.49-1.58-.91-1.69-1.49a30.93,30.93,0,0,1-.41-5.53c.06-5.2.26-10.4.31-15.59a49.87,49.87,0,0,0-.36-6.46c-.19-1.6.6-1.79,1.78-2.7,4-3,7.59-.24,11.17.17,5,.57,7.18,4.86,6,9.8-1,4-5.91,8-10.06,7.8-2.75-.17-3.93.46-3.45,3.33A15.36,15.36,0,0,1,77.4,103.43Zm8.8-15c0-3.5-1.1-5.41-3.27-6.56-2.87-1.52-4.5-.51-4.42,2.71,0,1.75,0,3.51,0,5.27,0,1.42-.07,3.05,1.84,3.32s4.27,1.17,5.07-1.85C85.77,90.15,86.08,88.94,86.2,88.46Z" transform="translate(0 0)"/>
          <path class="cls-1" d="M7.65,19.5c0,2.52,0,5,0,7.56,0,.84.27,1.85-.1,2.48A13.58,13.58,0,0,1,5.16,32c-.52-.82-1.44-1.61-1.51-2.46-.56-7.63-1-15.28-1.43-22.91C2.05,3.9,3.69,2.43,6.47,2.85c1.34.2,2.67.48,4,.55,5,.25,7.71,3.73,6.56,8.58a11.77,11.77,0,0,1-1.62,3.9c-1.18,1.73-.94,3.2,0,4.91,1.3,2.41,2.36,5,3.58,7.41.83,1.69-.14,2.66-1.42,3.2-1.46.61-1.9-.53-2.39-1.73-1.28-3.1-2.62-6.19-4.19-9.14-.46-.84-1.82-1.2-2.77-1.78ZM7.46,6.78c.24,2.84.35,5.74.84,8.57.08.46,2.08,1.13,2.83.83,2.48-1,3.35-3.94,2.36-6.78C12.63,6.91,11.15,6.2,7.46,6.78Z" transform="translate(0 0)"/>
          <path class="cls-1" d="M44.23,20a80.1,80.1,0,0,1-3.1,8.56c-1,2.07-5.66,3.29-7.91,2.61-3.64-1.1-5.56-3.22-5.9-6.4-.31-2.75-.89-5.48-1-8.24a36.64,36.64,0,0,1,.46-7.69,5.89,5.89,0,0,1,6.13-5.25c2.25-.06,4.75-.35,6.68.51a7.2,7.2,0,0,1,3.32,4.52C43.69,11.81,43.73,15.22,44.23,20Zm-5.38-3.63c-.31-2.1-.66-5.27-1.3-8.38-.31-1.51-1.42-3.14-3.11-2.6a5.42,5.42,0,0,0-3.16,3.06c-1.72,5.88-1.09,11.78.66,17.6.47,1.53,1.42,2.9,3,2.28a5.63,5.63,0,0,0,3.16-3.1C38.73,22.7,38.59,20,38.85,16.33Z" transform="translate(0 0)"/>
          <path class="cls-1" d="M35,121.68c0,7-.05,13.78.06,20.52a3.15,3.15,0,0,0,1.49,2.25,2.86,2.86,0,0,1,1.46,4c-.39.81-2,1.19-3.18,1.44-1.37.3-2.83.15-4.22.37-3,.47-5.14-1-4.51-3.55.27-1.09,1.65-1.9,2.52-2.84l.62.34V121.85c-2.09-.25-3.92-1-3.18-3.72.19-.72.88-1.82,1.4-1.86a84.67,84.67,0,0,1,9.69-.08c.42,0,1.09,1.65,1,2.49a5.35,5.35,0,0,1-1.32,2.67C36.55,121.68,35.73,121.57,35,121.68Z" transform="translate(0 0)"/>
          <path class="cls-1" d="M22.22,108.14a37.15,37.15,0,0,1,.49-4.63c1.77-7.57,3.66-15.11,5.44-22.67.41-1.75,1.42-2.74,3.09-2.76s2.7.92,3.18,2.66c2.22,8,4.54,15.92,6.8,23.89a5.23,5.23,0,0,1,.29,2.23,4.6,4.6,0,0,1-1,2.11c-1.16-.27-2.74-.55-3.26-1.39-.78-1.29-.84-3-1.16-4.58s-1.2-2.52-3-2.32a10.77,10.77,0,0,1-2.27,0c-2.56-.28-3.54,1-3.49,3.39a5.5,5.5,0,0,1,0,1.52C26.27,109.4,27.18,110.28,22.22,108.14Zm8.65-23.66-1.11.09C29,88,28,91.48,27.41,95c-.67,3.86-.48,3.94,3.46,3.8,2.53-.09,3-.65,2.46-3-.12-.57-.19-1.15-.31-1.72C32.31,90.85,31.59,87.67,30.87,84.48Z" transform="translate(0 0)"/>
          <path class="cls-1" d="M79.84,67.5c.13.23.42.86.8,1.43s.84,1.12,1.27,1.67c-.7.37-1.38,1-2.09,1.06-2.76.09-5.53,0-8.3,0a12.79,12.79,0,0,0-1.75,0c-5.74.71-8.95-2.79-8.71-8.68.21-5.15-.32-10.34-.57-15.51C60.32,43.72,60,40,60,36.35c0-.77.67-2.08,1.22-2.19a3.5,3.5,0,0,1,2.49,1.05c3.7,3.37,1.85,7.82,2.09,11.84.36,6.36.45,12.74.8,19.1,0,.48,1.19,1.27,1.84,1.29C72.07,67.57,75.76,67.5,79.84,67.5Z" transform="translate(0 0)"/>
          <path class="cls-1" d="M94.77,28c-2.17.53-3.56.44-4.84-1.64-2-3.25-4.59-6.16-7.37-9.8,0,3.53.07,6.56-.06,9.57a2.75,2.75,0,0,1-1.12,2.09c-1.57.74-2.63-.07-2.74-1.75-.12-2,0-4-.07-6-.2-6-.41-11.93-.67-17.88C77.83.92,78.52.19,80.19,0s2.51.62,2.52,2.27c0,2.8,0,5.61,0,8.42l.73.25c1.38-2.12,2.67-4.3,4.16-6.34,1.14-1.57,1.25-4.17,4-4.2,2.1,0,2.65.78,1.52,2.58-2.09,3.32-4.27,6.58-6.49,9.81-1.24,1.82-1,2.85.59,4.66C90.08,20.63,93.37,23.68,94.77,28Z" transform="translate(0 0)"/>
          <path class="cls-1" d="M91.47,68h16.68l0,.7L105.8,69c.27.83.93,1.83.67,2.41s-1.47.86-2.28.89c-4,.15-7.91.15-11.87.22-2.85,0-3.92-.77-5-4.14a14.14,14.14,0,0,1-.74-4c-.09-4,.11-8,0-12-.19-4.69-.67-9.36-1-14a7.21,7.21,0,0,1,.15-2.71c.49-1.52,1.85-1.7,2.71-.63a9.56,9.56,0,0,1,2.14,4.39c.36,2.45,0,5,.13,7.49C90.91,53.92,91.2,60.93,91.47,68Z" transform="translate(0 0)"/>
          <path class="cls-1" d="M4.25,94.32c.58,2.53,1.18,5.73,2.06,8.85a4.2,4.2,0,0,0,3.83,3.19c2,.21,2.83-1.13,3.66-2.53.13-.22.2-.55.39-.63,1-.43,2-.78,2.94-1.16,0,1.06.36,2.33-.09,3.16-1.13,2.11-7.06,4.54-9.12,4-4.59-1.26-6.86-4.17-7.15-8.1a137.06,137.06,0,0,1,0-15.83c.15-3.6,5.47-7.31,9.9-6.81a15,15,0,0,1,5.66,2.2c.5.28.63,2.22.18,2.88-.84,1.2-2.15,1.48-3.3-.07a6.65,6.65,0,0,0-2.5-2.37C8,80,6,81.3,5.52,84.31S4.73,90.47,4.25,94.32Z" transform="translate(0 0)"/>
          <path class="cls-1" d="M57.07,15.27c.72,3.09,1.25,6.24,2.26,9.23a4.62,4.62,0,0,0,2.89,2.7c.78.16,2.22-1.26,2.8-2.29.77-1.38,1.66-2.12,3.13-1.85.5.08,1.31,1,1.21,1.31-.41,1.18-.83,2.68-1.76,3.3C62,31.43,55.87,30.05,54.29,24.21c-1.18-4.35-.95-9.09-1.21-13.66a8.44,8.44,0,0,1,.58-3.91c2-4.18,9.69-5.7,13.21-2.59.66.59.68,1.92,1,2.9-1.2,0-2.41-.09-3.61-.16-.12,0-.19-.3-.33-.37-1.17-.62-2.91-2-3.43-1.68a7.23,7.23,0,0,0-2.64,3.9,37.06,37.06,0,0,0-.47,6.53Z" transform="translate(0 0)"/>
          <path class="cls-1" d="M103,8.73c2.3-.2,4.27-.43,6.25-.54a3.3,3.3,0,0,1,3.54,3.27c.34,4.08.2,8.2.19,12.31,0,.32-.39.64-1.07,1.67-.58-1.76-1.22-2.91-1.3-4.1-.17-2.52-.08-5.06,0-7.59,0-1.33.1-2.74-1.78-2.59-1.58.12-3,.74-3,2.73,0,2.7.11,5.4,0,8.09a8.89,8.89,0,0,1-1.13,2.69c-.55-.86-1.55-1.71-1.58-2.59C102.91,17.55,103,13,103,8.73Z" transform="translate(0 0)"/>
          <path class="cls-1" d="M103,102.66c-.31,1.37-.35,2.91-1,4.08a3.61,3.61,0,0,1-2.75,1.51A3.11,3.11,0,0,1,97,106.38a24.59,24.59,0,0,1-.3-5.7,2.63,2.63,0,0,1,3-2.89c2.17.07,2.81,1.5,3.06,3.31a10.85,10.85,0,0,1,0,1.51Zm-5.44,0a10.53,10.53,0,0,0,.15,2.39,7.7,7.7,0,0,0,1.11,1.71c.53-.52,1.41-1,1.53-1.56a21.62,21.62,0,0,0,.38-5c0-.53-.84-1.44-1.29-1.44a2.21,2.21,0,0,0-1.56,1.28A9.69,9.69,0,0,0,97.57,102.66Z" transform="translate(0 0)"/>
          <path class="cls-1" d="M108.83,107.78c-.74-1.67-1.49-3.33-2.23-5l-.89.07-.54,4.56-.53.17a5.62,5.62,0,0,1-.59-1.66,54.76,54.76,0,0,1,.16-6.28c.08-.86.7-2.34,1.13-2.36,1.6-.08,4.13-.1,3.85,2-.38,2.84-.81,5.54.59,8.32Zm-3.06-5.73,1,.28a7.75,7.75,0,0,0,1.14-2.59c0-.54-.92-1.13-1.44-1.7l-.66.35Z" transform="translate(0 0)"/>
          <path class="cls-1" d="M95.1,103.21l-3.74.33c-.16,1.59-.33,3.22-.49,4.84l-.77,0v-10h5.15l.07.59-4,.47v3.2H95Z" transform="translate(0 0)"/>
          <path class="cls-1" d="M116.4,10.67c-1.15-1-1.28-4.68-.39-5.3.24-.16.75-.25.9-.11.33.29.77.8.7,1.12C117.31,7.79,116.85,9.16,116.4,10.67Z" transform="translate(0 0)"/>
          <path class="cls-1" d="M101.2,5c2.15,2.12-.73,3.66,0,5.48C98.89,9.76,98.9,9.54,101.2,5Z" transform="translate(0 0)"/>
        </g>
      </g>
    </g>
  </g>
</svg>
