<svg xmlns="http://www.w3.org/2000/svg" width="237.28" height="252.08" viewBox="0 0 237.28 252.08">
  <defs>
    <style>
      .cls-1 {
        fill: #699b9b;
      }

      .cls-2 {
        fill: #fff;
      }

      .cls-3 {
        fill: #231f20;
      }

      .cls-4 {
        fill: #808285;
      }

      .cls-5 {
        fill: #f7941d;
      }
    </style>
  </defs>
  <title>Asset 4</title>
  <g id="Layer_2" data-name="Layer 2">
    <g id="drummer">
      <g>
        <g>
          <circle class="cls-1" cx="118.64" cy="39.54" r="29.58"/>
          <path class="cls-1" d="M81.41,41.2C81.41,18.45,98.08,0,118.64,0s37.22,18.45,37.22,41.2"/>
          <circle class="cls-2" cx="127.4" cy="42.1" r="6.47"/>
          <circle class="cls-2" cx="109.87" cy="42.1" r="6.47"/>
          <path class="cls-1" d="M206.69,40.71c-14.12,8.9-28.47,18.12-44.5,23.18-7.51,2.38-15.3,3.49-22.92,5.41-7.4,1.87-13.58,5-20.1,8.82-.47.28-2.31,1.21-2.2,1.35-.86-.12-2.92-2.49-3.72-3.1A45.35,45.35,0,0,0,104,71c-6.85-3-14.07-4.66-21.25-6.63a107.64,107.64,0,0,1-36.6-17.94c-.53-.55-1.07-1.1-1.58-1.67a7.06,7.06,0,0,0-3.1-2.1l-.22-.19C34,36.23,23.31,46.79,30.65,53.1c1.66,1.43,3.36,2.82,5.08,4.16,12,12.29,28,18.59,42.62,27.16a92.79,92.79,0,0,1,10.1,6.73c7,15,5.86,32.5,2.28,48.54-.83,3.68,1.09,8.47,5.23,9.22a148.79,148.79,0,0,0,48.7.78c3.15-.46,5.56-4.24,5.51-7.23-.21-11.36-.46-22.72-.61-34.07-.07-5,.3-9,3-13.31.19-.32.41-.62.62-.94a51.15,51.15,0,0,1,7.62-4.36c19.19-9.39,36.16-23.72,53.49-36.11C222,48.15,215,35.48,206.69,40.71Z"/>
          <path class="cls-1" d="M191,220.49q-7.14.3-14.29.11a7.5,7.5,0,0,0,0,15q7.15.19,14.29-.11a7.66,7.66,0,0,0,7.5-7.5C198.47,224.06,195,220.31,191,220.49Z"/>
          <path class="cls-1" d="M56.71,221.69c-4.77.21-9.53.24-14.29.12a7.5,7.5,0,0,0,0,15c4.76.12,9.52.09,14.29-.12a7.66,7.66,0,0,0,7.5-7.5C64.21,225.26,60.77,221.52,56.71,221.69Z"/>
          <path class="cls-1" d="M73.66,133.72c-9.91-.73-22.12-1-31.51,2.76-10.92,4.36-8.39,17.53-7.37,26.93,1.14,10.5,4.55,20.4,5.14,30.89.63,11.15,4.94,21.19,9.45,31.24,3.49,7.78,16.22,2.26,13.71-5.78-2-6.56-3.85-13.2-5.31-19.93-1.29-6-3.15-12.59-2.59-18.74.52-5.82,3.72-11.41,6.65-16.36,2.14-3.62,6-11.58,10.4-12.7a6.84,6.84,0,0,0,4.88-3.85C83.08,145.52,81.91,134.33,73.66,133.72Z"/>
          <path class="cls-1" d="M157.71,133.72c9.91-.73,22.12-1,31.51,2.76,10.92,4.36,8.39,17.53,7.37,26.93-1.14,10.5-4.54,20.4-5.14,30.89-.63,11.15-4.94,21.19-9.45,31.24-3.49,7.78-16.22,2.26-13.71-5.78,2.05-6.56,3.85-13.2,5.31-19.93,1.29-6,3.15-12.59,2.59-18.74-.52-5.82-3.72-11.41-6.65-16.36-2.14-3.62-6-11.58-10.4-12.7a6.84,6.84,0,0,1-4.88-3.85C148.29,145.52,149.46,134.33,157.71,133.72Z"/>
          <rect class="cls-3" x="5.97" y="155.64" width="55.45" height="37.56" rx="8.23"/>
          <rect class="cls-3" x="133.11" y="148.95" width="65.33" height="24.26" rx="7.18"/>
          <rect class="cls-3" x="6.23" y="161.08" width="3.91" height="78.68" rx="1.89"/>
          <rect class="cls-3" x="31.75" y="161.08" width="3.91" height="78.68" rx="1.89"/>
          <rect class="cls-3" x="59.47" y="161.08" width="3.91" height="78.68" rx="1.89"/>
          <rect class="cls-3" x="174.05" y="163.93" width="3.91" height="75.83" rx="1.72"/>
          <rect class="cls-3" x="118.52" y="102.63" width="53.32" height="43.64" rx="11.79"/>
          <rect class="cls-3" x="58.55" y="102.63" width="53.32" height="43.64" rx="11.79"/>
          <rect class="cls-4" x="141.23" y="163.06" width="143.78" height="5.55" rx="2.68" transform="translate(378.95 -47.28) rotate(90)"/>
          <circle class="cls-2" cx="116.49" cy="185.15" r="66.93"/>
          <rect class="cls-3" y="235.69" width="16.37" height="4.08" rx="2.04"/>
          <rect class="cls-3" x="25.51" y="235.69" width="16.37" height="4.08" rx="2.04"/>
          <rect class="cls-3" x="53.24" y="235.69" width="16.37" height="4.08" rx="2.04"/>
          <rect class="cls-3" x="167.82" y="235.69" width="16.37" height="4.08" rx="2.04"/>
          <rect class="cls-3" x="204.93" y="235.69" width="16.37" height="4.08" rx="2.04"/>
          <rect class="cls-3" x="188.96" y="121.67" width="48.32" height="5.55" rx="2.02"/>
          <rect class="cls-3" x="188.96" y="112.67" width="48.32" height="5.55" rx="2.02"/>
          <rect class="cls-3" x="215.89" y="102.68" width="1.62" height="7.43"/>
          <rect class="cls-3" x="218.6" y="104.08" width="8.72" height="4.41" rx="2.21"/>
          <rect class="cls-3" x="216.25" y="105.88" width="4.71" height="0.82" rx="0.41"/>
        </g>
        <g>
          <rect class="cls-5" x="33.72" y="25.98" width="2.83" height="36.61" rx="1.42" transform="translate(-9.87 10.08) rotate(-14.33)"/>
          <rect class="cls-5" x="27.59" y="22.37" width="5.57" height="6.55" rx="2.78" transform="translate(-5.4 8.32) rotate(-14.33)"/>
          <rect class="cls-5" x="209.22" y="28.57" width="2.83" height="36.61" rx="1.42" transform="translate(403.12 144.43) rotate(-165.67)"/>
          <rect class="cls-5" x="212.62" y="24.95" width="5.57" height="6.55" rx="2.78" transform="translate(417.11 108.91) rotate(-165.67)"/>
        </g>
      </g>
    </g>
  </g>
</svg>
