<svg xmlns="http://www.w3.org/2000/svg" width="11in" height="8.5in" viewBox="0 0 792 612">
  <defs>
    <style>
      .cls-1 {
        fill: #699b9b;
      }

      .cls-2 {
        fill: #fff;
      }

      .cls-3 {
        fill: #f7941d;
      }

      .cls-4 {
        fill: #231f20;
      }

      .cls-5 {
        fill: #808285;
      }
    </style>
  </defs>
  <title>Artboard 1</title>
  <g id="drummer">
    <g>
      <circle class="cls-1" cx="394.05" cy="135.58" r="56.82"/>
      <path class="cls-1" d="M322.54,138.77c0-43.71,32-79.15,71.51-79.15s71.52,35.44,71.52,79.15"/>
      <circle class="cls-2" cx="410.89" cy="140.5" r="12.43"/>
      <circle class="cls-2" cx="377.22" cy="140.5" r="12.43"/>
      <path class="cls-1" d="M563.21,137.83c-27.13,17.09-54.7,34.8-85.49,44.53-14.43,4.56-29.39,6.69-44,10.39-14.22,3.59-26.09,9.55-38.61,16.94-.92.54-4.45,2.33-4.24,2.6-1.64-.25-5.61-4.8-7.15-6a85.42,85.42,0,0,0-17.76-10.27c-13.15-5.75-27-9-40.81-12.75a206.63,206.63,0,0,1-70.31-34.46c-1-1.06-2.05-2.1-3-3.21a13.73,13.73,0,0,0-6-4l-.42-.35c-14-12-34.47,8.27-20.38,20.38q4.8,4.13,9.77,8c23,23.62,53.83,35.72,81.86,52.19a179.32,179.32,0,0,1,19.42,12.92c13.44,28.9,11.25,62.42,4.36,93.24-1.58,7.08,2.1,16.28,10.07,17.72A285.41,285.41,0,0,0,444,347.17c6.06-.89,10.68-8.15,10.58-13.89-.39-21.82-.88-43.63-1.17-65.45-.13-9.58.58-17.26,5.72-25.56.38-.61.8-1.19,1.19-1.8A97.8,97.8,0,0,1,475,232.09c36.87-18,69.47-45.57,102.75-69.38C592.56,152.12,579.17,127.78,563.21,137.83Z"/>
      <path class="cls-1" d="M533,483.17q-13.72.58-27.45.22c-7.78-.2-14.4,6.77-14.4,14.41a14.62,14.62,0,0,0,14.4,14.41q13.74.36,27.45-.22c7.78-.33,14.41-6.39,14.41-14.41C547.41,490,540.81,482.84,533,483.17Z"/>
      <path class="cls-1" d="M275.08,485.5q-13.72.57-27.45.22c-7.78-.21-14.4,6.76-14.4,14.4a14.62,14.62,0,0,0,14.4,14.41q13.74.36,27.45-.22c7.78-.33,14.41-6.39,14.41-14.41C289.49,492.35,282.89,485.17,275.08,485.5Z"/>
      <path class="cls-1" d="M307.65,316.5c-19-1.4-42.49-1.89-60.52,5.3-21,8.37-16.13,33.67-14.17,51.74,2.19,20.16,8.74,39.18,9.88,59.33,1.22,21.42,9.48,40.71,18.15,60,6.71,14.93,31.16,4.33,26.34-11.1-3.95-12.62-7.4-25.38-10.2-38.3-2.48-11.45-6.05-24.18-5-36,1-11.18,7.15-21.93,12.77-31.43,4.12-6.95,11.57-22.25,20-24.41,4.94-1.26,8-4.05,9.38-7.39C325.76,339.17,323.5,317.67,307.65,316.5Z"/>
      <path class="cls-1" d="M469.11,316.5c19-1.4,42.5-1.89,60.53,5.3,21,8.37,16.12,33.67,14.16,51.74-2.19,20.16-8.73,39.18-9.88,59.33-1.21,21.42-9.48,40.71-18.15,60-6.71,14.93-31.16,4.33-26.33-11.1,3.94-12.62,7.39-25.38,10.19-38.3,2.48-11.45,6.05-24.18,5-36-1-11.18-7.16-21.93-12.78-31.43-4.11-6.95-11.56-22.25-20-24.41-4.95-1.26-7.95-4.05-9.39-7.39C451,339.17,453.26,317.67,469.11,316.5Z"/>
      <g>
        <rect class="cls-3" x="230.93" y="109.53" width="5.44" height="70.33" rx="2.72" transform="translate(-28.55 62.35) rotate(-14.33)"/>
        <rect class="cls-3" x="219.15" y="102.59" width="10.7" height="12.59" rx="5.35" transform="translate(-19.97 58.97) rotate(-14.33)"/>
        <rect class="cls-3" x="568.07" y="114.5" width="5.44" height="70.33" rx="2.72" transform="translate(1086.76 435.98) rotate(-165.67)"/>
        <rect class="cls-3" x="574.59" y="107.56" width="10.7" height="12.59" rx="5.35" transform="translate(1113.64 367.74) rotate(-165.67)"/>
      </g>
    </g>
  </g>
  <g id="tom3">
    <g>
      <rect class="cls-4" x="185.73" y="352.4" width="106.52" height="72.14" rx="15.81"/>
      <rect class="cls-4" x="186.23" y="362.85" width="7.5" height="151.15" rx="3.62"/>
      <rect class="cls-4" x="235.24" y="362.85" width="7.5" height="151.15" rx="3.62"/>
      <rect class="cls-4" x="288.5" y="362.85" width="7.5" height="151.15" rx="3.62"/>
      <rect class="cls-4" x="174.26" y="506.16" width="31.45" height="7.83" rx="3.92"/>
      <rect class="cls-4" x="276.53" y="506.16" width="31.45" height="7.83" rx="3.92"/>
    </g>
  </g>
  <g id="tom2">
    <rect class="cls-4" x="287.02" y="250.56" width="102.42" height="83.83" rx="22.64"/>
  </g>
  <g id="tom1">
    <rect class="cls-4" x="402.22" y="250.56" width="102.42" height="83.83" rx="22.64"/>
  </g>
  <g id="snaire">
    <g>
      <rect class="cls-4" x="430.25" y="340.03" width="125.5" height="46.6" rx="13.79"/>
      <rect class="cls-4" x="508.89" y="368.8" width="7.5" height="145.67" rx="3.3"/>
      <rect class="cls-4" x="496.92" y="506.64" width="31.45" height="7.83" rx="3.92"/>
    </g>
  </g>
  <g id="basedrum">
    <circle class="cls-2" cx="398.32" cy="409.08" r="128.57"/>
  </g>
  <g id="hihat">
    <g>
      <rect class="cls-5" x="445.84" y="366.65" width="276.19" height="10.66" rx="5.15" transform="translate(955.92 -211.95) rotate(90)"/>
      <rect class="cls-4" x="568.21" y="506.16" width="31.45" height="7.83" rx="3.92"/>
      <rect class="cls-4" x="537.53" y="287.15" width="92.82" height="10.66" rx="3.89"/>
      <rect class="cls-4" x="537.53" y="269.85" width="92.82" height="10.66" rx="3.89"/>
      <rect class="cls-4" x="589.27" y="250.66" width="3.11" height="14.26"/>
      <rect class="cls-4" x="594.48" y="253.34" width="16.75" height="8.48" rx="4.24"/>
      <rect class="cls-4" x="589.95" y="256.8" width="9.04" height="1.57" rx="0.78"/>
    </g>
  </g>
</svg>
