<svg xmlns="http://www.w3.org/2000/svg" width="161.24" height="317.4" viewBox="0 0 161.24 317.4">
  <defs>
    <style>
      .cls-1 {
        fill: #662d91;
      }

      .cls-2 {
        fill: #f3caa1;
      }

      .cls-3 {
        fill: #fff;
      }

      .cls-4 {
        fill: #231f20;
      }

      .cls-5 {
        fill: #f7941d;
      }
    </style>
  </defs>
  <title>Asset 1</title>
  <g id="Layer_2" data-name="Layer 2">
    <g id="guitarplayer">
      <g>
        <g>
          <path class="cls-1" d="M91.73,235a11,11,0,0,0,0-3.57q-4.62-29.77-10.1-59.4c-1.07-5.83-6.65-6.87-10.83-4.78-4.29-4.74-14.26-3.07-14.07,5.1a190.9,190.9,0,0,0,12.86,65,10.57,10.57,0,0,0,1.73,3c1.07,23.07,2.31,46.15,5.19,69.08.53,4.28,3.29,8,8,8a8.12,8.12,0,0,0,8-8l.55-49.09C93.17,253,94.31,242.63,91.73,235Z"/>
          <circle class="cls-1" cx="59.2" cy="48.52" r="28.42"/>
          <path class="cls-1" d="M46.67,165.46a7.4,7.4,0,0,0-6.37,3.39,7.58,7.58,0,0,0-7,7.65,1149.55,1149.55,0,0,1-10,132.25c-1,7.69,9,9.43,13.65,5.66,7.81-6.36,9.19-16.79,9.52-26.24.46-12.71.9-25.42,1.62-38.12q2.17-38.38,6.61-76.59C55.16,169.17,50.64,165.46,46.67,165.46Z"/>
          <path class="cls-2" d="M27.32,157.63a6.11,6.11,0,0,1-1.92.54c.26-.14.51-.29.76-.45C26.66,157.4,27,157.39,27.32,157.63Z"/>
          <path class="cls-2" d="M87.73,138.52l1.89-1c-.06.45-.13.9-.2,1.35-.2,1.32-.41,2.63-.65,4,0,.33-.11.66-.17,1-.23,1.31-.48,2.62-.74,3.93-.11.57-.22,1.13-.35,1.69-.17.89-.36,1.77-.56,2.65-.71,3.2-1.17,6.6-4.11,8.55a10.34,10.34,0,0,1-5.14,1.41c-.48,0-1,0-1.44,0s-1,0-1.55,0h-.36c-.67,0-1.32,0-1.93,0l-.41,0h-.33l-11.9.47h-.39l-2.33.1H56.7l-1.63.06-1.44.06-8.1.32A4.66,4.66,0,0,1,44,163a6.3,6.3,0,0,1-3.4.22c-2.66-.6-3.93-3.08-3.94-5.56a5.44,5.44,0,0,1-.69-2q-1.16-7.91-2-15.84c0-.26-.06-.52-.08-.78,2.63.09,5.27.25,7.9.4A10,10,0,0,0,49,137.05c1.88-1.58,3.7-3.26,5.44-5a23.41,23.41,0,0,1,12.18-6.67,13.84,13.84,0,0,1,14.56,5.48c1.79,2.33,3.4,4.79,5,7.23C86.62,138.8,87,138.92,87.73,138.52Z"/>
          <path class="cls-1" d="M130.76,124.46a4.59,4.59,0,0,1-1.82,3.74c-3.82,3.22-10,8.16-16.06,10.11-3.12,1.87-6.59,3.69-9.54,3.29a6.1,6.1,0,0,1-1.54-.4,5.36,5.36,0,0,1-.92-.48,3.88,3.88,0,0,1-.58-.42c-1.87-1.5-2.91-4-3.79-6.36Q109.8,127,123.1,120.08l2-1a5.56,5.56,0,0,1,1.29.25,4.71,4.71,0,0,1,.71.27,6.28,6.28,0,0,1,3.54,4A3.72,3.72,0,0,1,130.76,124.46Z"/>
          <g id="IM3lqJ">
            <g>
              <path class="cls-3" d="M138,112.13a3,3,0,0,1-.71.53c-2.19,1.17-4.4,2.33-6.61,3.48L125.11,119l-.24.13-1.77.92Q109.8,127,96.51,133.94l-6.89,3.59-1.89,1c-.77.4-1.11.28-1.58-.43-1.61-2.44-3.22-4.9-5-7.23a13.84,13.84,0,0,0-14.56-5.48,23.41,23.41,0,0,0-12.18,6.67c-1.74,1.74-3.56,3.42-5.44,5a10,10,0,0,1-7.23,2.38c-2.63-.15-5.27-.31-7.9-.4L31.76,139a36.49,36.49,0,0,0-13.29,2c.38.15.76.3,1.15.47,6.74,2.84,14.65,7.76,10.15,14a7.13,7.13,0,0,1-.86,1,1,1,0,0,1-.15.14q-.18.16-.36.3a1.64,1.64,0,0,1-.26.2l-.27.18a5.86,5.86,0,0,1-.55.3c-.3-.24-.66-.23-1.16.09-.25.16-.5.31-.76.45l-.44,0h-.44c-.24,0-.47,0-.71,0a10,10,0,0,1-1.08-.14l-.51-.1-.77-.18-.6-.17-.89-.27-.58-.2-.73-.26-13-4.7-.78-.28a24.33,24.33,0,0,0-2.21,5,23.91,23.91,0,0,0-.3,12.45,61.47,61.47,0,0,0,19.79,33.28,23.63,23.63,0,0,0,10.13,5.41,22.84,22.84,0,0,0,5.07.62c5.2,0,10-.91,14-3.37a21.23,21.23,0,0,0,6.7-6.48c.3-.44.59-.88.88-1.33,2.46-3.68,4.82-7.43,7-11.26,2-3.5,4.62-6.08,8.53-7.2,1.53-.44,3.1-.75,4.67-1.09,1.14-.24,2.3-.4,3.45-.65l.28-.06c5.67-1.33,11.67-6.69,12.2-14.2a27.65,27.65,0,0,0-3-14.6c-.66-1.3-.94-1.12.6-2l9.08-5.24q10.82-6.24,21.63-12.5l7.33-4.24.69-.4c2.32-1.35,4.65-2.69,7-4a23.2,23.2,0,0,1,2.86-1.44Z"/>
              <path class="cls-4" d="M92.17,150.5c-.42-1-.91-1.9-1.4-2.9-.53.29-.91.48-1.28.7l-2,1.14c-2.57,1.49-5.14,3-7.73,4.44a1.58,1.58,0,0,0-1,1.79,12,12,0,0,1-1.1,6.38s0,0,0,0a14.46,14.46,0,0,1-3,4.17,13.33,13.33,0,0,1-16,1.92l-.74-.44a12.67,12.67,0,0,1-4.41-4.88,13.37,13.37,0,0,1,19.07-17.5,1.52,1.52,0,0,0,1.74.06c3.54-1.87,7.1-3.71,10.64-5.55.26-.14.51-.31.83-.5a2.74,2.74,0,0,0-.19-.47c-1.94-2.79-3.74-5.69-5.87-8.32a12.46,12.46,0,0,0-12-4.6,22.37,22.37,0,0,0-12.55,6.34c-1.94,1.86-3.89,3.74-6,5.47a10.29,10.29,0,0,1-7.43,2.42c-2.22-.13-4.45-.24-6.68-.36l-1.3-.05a40.1,40.1,0,0,0-14.29,1.68c6.74,2.84,14.65,7.76,10.15,14l-11.12,1.36-13-4.7a23.49,23.49,0,0,0-2,4.29A21.76,21.76,0,0,0,3,168.1a59.74,59.74,0,0,0,20.36,34.43,21.87,21.87,0,0,0,9,4.72,23.63,23.63,0,0,0,7.92.56,24.84,24.84,0,0,0,11.24-3.52,19.72,19.72,0,0,0,5.93-5.87l1.38-2.08c2.15-3.21,4.28-6.44,6.1-9.84,2.54-4.74,6.18-7.74,11.42-8.82,1.21-.25,2.43-.44,3.64-.67.84-.16,1.69-.31,2.53-.52a5.78,5.78,0,0,0,.69-.17,15.29,15.29,0,0,0,11.12-13.24A25.86,25.86,0,0,0,92.17,150.5Z"/>
              <path class="cls-1" d="M122.27,119.56,107.1,126.9a30.7,30.7,0,0,1-2.26-5.69c-.85-2.54-1.41-5.17-2-7.77q-.52-2.34-1.14-4.71c-.87-6-1.2-12.16-5-17.2-3.23-4.34-8.19-6.48-13.44-7.19A39.87,39.87,0,0,0,65,86.22a14.34,14.34,0,0,1-10,.1,48.1,48.1,0,0,0-6.13-1.71A6.07,6.07,0,0,0,47,84.19,46,46,0,0,0,28.06,87a4.66,4.66,0,0,0-1.59.6c-.67.26-1.33.52-2,.81a6.42,6.42,0,0,0-.94.53,9.61,9.61,0,0,0-4,4.69,19.56,19.56,0,0,0-1.47,4.48c-2.08,4.24-3.54,8.88-5.24,13.34L.88,142.83c-1.66,2.77-1.13,7.2,2.86,8.65l1.14.41.78.28,13,4.7c2.23.81,4.6,1.55,6.75,1.3.26-.14.51-.29.76-.45.5-.32.86-.33,1.16-.09a6.35,6.35,0,0,0,2.45-2.12c4.5-6.26-3.41-11.18-10.15-14-.39-.17-.77-.32-1.15-.47-1.56-.63-3-1.13-4.18-1.5,3-6.21,6.34-12.25,9.11-18.57a203.21,203.21,0,0,0,8.19-22.13A391,391,0,0,0,33.83,139c2.63.09,5.27.25,7.9.4A10,10,0,0,0,49,137.05c1.88-1.58,3.7-3.26,5.44-5a23.41,23.41,0,0,1,12.18-6.67,13.84,13.84,0,0,1,14.56,5.48c1.79,2.33,3.4,4.79,5,7.23.47.71.81.83,1.58.43l1.89-1c.92-6.15,1.55-12.35,1.91-18.56,1.38,4.5,2.73,9,4.4,13.41.19.5.38,1,.58,1.56Q109.8,127,123.1,120.08l2-1A5.45,5.45,0,0,0,122.27,119.56Z"/>
              <path class="cls-5" d="M57.87,153.52A8.14,8.14,0,0,1,68.43,149a2.71,2.71,0,0,1,1.24,1c1.31,2.24,2.55,4.51,3.78,6.79a2,2,0,0,1,.2,1.14,8.25,8.25,0,1,1-15.78-4.45Z"/>
              <path class="cls-5" d="M54.91,159.25l-1,.39a13.56,13.56,0,0,1-.54-2.46,11.68,11.68,0,0,1,5.53-10.76,11.86,11.86,0,0,1,12-.7,9.13,9.13,0,0,1,1.14.71,1.6,1.6,0,0,1-2.2.47,10.71,10.71,0,0,0-14.94,11.27A9.69,9.69,0,0,1,54.91,159.25Z"/>
              <path class="cls-3" d="M71.31,148c.41-.24.67-.38.92-.54s.39-.26.67-.45l3.24,5.77c.07.12.11.25.18.36.79,1.46.77,1.52-1,2.12C74,152.91,72.69,150.52,71.31,148Z"/>
              <path class="cls-3" d="M72.39,151.68c.71,1.2,1.44,2.38,2.12,3.6.09.16-.06.44-.1.67-.23-.11-.56-.16-.67-.35-.7-1.21-1.34-2.45-2-3.67Z"/>
              <path class="cls-3" d="M72.39,151.68l-.66.25c-.58-1-1.17-2.07-1.76-3.1l.19-.3c.24.09.58.12.69.29C71.39,149.75,71.88,150.72,72.39,151.68Z"/>
            </g>
          </g>
          <path class="cls-1" d="M127.25,114.42a3,3,0,0,0-2.89,2.2,3,3,0,0,0,.73,2.81,7.83,7.83,0,0,1-.49,2.28,17.93,17.93,0,0,1-1.49,3.69c-1.82,3.41,3.36,6.44,5.18,3,.1-.18.2-.38.3-.58a2.45,2.45,0,0,0,2.57-2.15C131.94,121.54,133.05,115,127.25,114.42Z"/>
          <path class="cls-1" d="M31.86,55.47a41.65,41.65,0,0,1,78.59-27.61Z"/>
          <rect class="cls-5" x="32.7" y="154.38" width="4.27" height="35.39" rx="2.13" transform="translate(-81.37 40.47) rotate(-30)"/>
          <circle class="cls-3" cx="72.07" cy="46.43" r="6.47"/>
        </g>
        <path class="cls-4" d="M161.22,108.48c-.06.52-.45.93-1.15,1.35-1.38.8-2.77,1.57-4.3,2.44.39.46.71.82,1,1.19s.74,1.16.1,1.57a2.07,2.07,0,0,1-1.72.12c-.63-.29-.57-1-.12-1.54a3,3,0,0,0,.3-.7l-.19-.24-3.28,1.82,0,.32a7.49,7.49,0,0,1,1.14.55c.32.22.78.55.8.86a1.46,1.46,0,0,1-.63,1,4.06,4.06,0,0,1-1.37.57,1.09,1.09,0,0,1-.9-.1,1.13,1.13,0,0,1-.09-.9,15,15,0,0,1,.51-1.61L151,115c-1,.55-2,1.07-2.9,1.68-.52.35-.25.78.22.83.87.1,1.09.55.88,1.3a1.42,1.42,0,0,1-1.69,1c-.55-.17-.92-.48-.77-1.18.28-1.2,0-1.36-1.18-1.23a15.78,15.78,0,0,0-4.29,1.13l-3.3-6.44a9,9,0,0,0,.81-.95c.83-1.08,1.55-2.24,2.37-3.33.51-.69.48-1.14-.26-1.58-.12-.07-.25-.11-.37-.17-.48-.26-1.29-.19-1.16-1.09a2.21,2.21,0,0,1,1.85-1.59c.91,0,1,.64,1,1.32s.05,1.25.08,1.88l.38.08c.84-.52,1.72-1,2.52-1.58a.89.89,0,0,0,.13-.86,1.53,1.53,0,0,0-.76-.6c-.69-.33-1.12-.75-.76-1.56s1.4-1.36,1.95-1.06a1.49,1.49,0,0,1,.74,1.87c-.12.42-.19.84-.28,1.27l.28.18c1-.57,1.93-1.13,2.86-1.74.15-.1.24-.6.15-.68s-.64-.47-.9-.4c-.6.17-1.09.32-1.41-.4a1.37,1.37,0,0,1,.5-1.76,3.43,3.43,0,0,1,1.25-.79,1.62,1.62,0,0,1,1.34.22,3.13,3.13,0,0,1,.37,1.52c0,.16-.22.34-.24.53a4.41,4.41,0,0,0,0,.81,1.86,1.86,0,0,0,.72-.08c1.19-.66,2.36-1.37,3.54-2,.83-.48,1.37-.6,1.84-.25a2.25,2.25,0,0,1,.65.81q2,3.53,3.78,7.16A2,2,0,0,1,161.22,108.48Z"/>
      </g>
    </g>
  </g>
</svg>
