<svg xmlns="http://www.w3.org/2000/svg" width="130.92" height="545.02" viewBox="0 0 130.92 545.02">
  <defs>
    <style>
      .cls-1 {
        fill: #662d91;
      }

      .cls-2 {
        fill: #f7941d;
      }

      .cls-3 {
        fill: #fff;
      }
    </style>
  </defs>
  <title>longguitar</title>
  <g id="Layer_2" data-name="Layer 2">
    <g id="background">
      <path class="cls-1" d="M109.51,80.52v31.67H119c.76-4.81,3.09-8.32,5.84-8.32,3.37,0,6.11,5.25,6.11,11.72s-2.74,11.73-6.11,11.73c-2.75,0-5.08-3.5-5.84-8.32h-9.46v14.32a11.6,11.6,0,0,1-1.61,5.86L93.66,163.66a13.25,13.25,0,0,1-3.11,3.61V544.76H44.13v-380l-.12-.16L26.17,139.55a11.72,11.72,0,0,1-2.23-6.82V119H12c-.76,4.82-3.09,8.32-5.84,8.32-3.37,0-6.11-5.25-6.11-11.73s2.74-11.72,6.11-11.72c2.75,0,5.08,3.51,5.84,8.32h12V80.52H12c-.76,4.82-3.09,8.32-5.84,8.32C2.74,88.84,0,83.59,0,77.12S2.74,65.39,6.11,65.39c2.75,0,5.08,3.5,5.84,8.32h12V42H12c-.76,4.82-3.09,8.32-5.84,8.32C2.74,50.36,0,45.11,0,38.64S2.74,26.91,6.11,26.91c2.75,0,5.08,3.5,5.84,8.32h12V13C23.94,5.8,30.59,0,38.79,0H94.66c8.2,0,14.85,5.8,14.85,13V35.23H119c.76-4.82,3.09-8.32,5.84-8.32,3.37,0,6.11,5.25,6.11,11.73s-2.74,11.72-6.11,11.72c-2.75,0-5.08-3.5-5.84-8.32h-9.46V73.71H119c.76-4.82,3.09-8.32,5.84-8.32,3.37,0,6.11,5.25,6.11,11.73s-2.74,11.72-6.11,11.72c-2.75,0-5.08-3.5-5.84-8.32Z"/>
    </g>
    <g id="circles">
      <g>
        <circle class="cls-2" cx="31.7" cy="39.64" r="4"/>
        <circle class="cls-2" cx="31.7" cy="78.12" r="4"/>
        <circle class="cls-2" cx="31.7" cy="116.6" r="4"/>
        <circle class="cls-2" cx="103.03" cy="39.64" r="4"/>
        <circle class="cls-2" cx="103.03" cy="78.12" r="4"/>
        <circle class="cls-2" cx="103.03" cy="116.6" r="4"/>
      </g>
    </g>
    <g id="strings">
      <g>
        <polygon class="cls-3" points="62.61 545.01 65.31 545.01 65.31 154.49 32.79 38.64 30.09 38.64 62.61 154.55 62.61 545.01"/>
        <polygon class="cls-3" points="55.95 545.01 58.66 545.01 58.66 154.49 33.14 77.11 30.44 77.11 55.95 154.38 55.95 545.01"/>
        <polygon class="cls-3" points="49.3 545.01 52 545.01 52 154.38 33.14 115.59 30.44 115.59 49.3 154.2 49.3 545.01"/>
        <polygon class="cls-3" points="72.06 545.01 69.36 545.01 69.36 154.49 101.88 38.64 104.58 38.64 72.06 154.55 72.06 545.01"/>
        <polygon class="cls-3" points="78.72 545.01 76.02 545.01 76.02 154.49 101.53 77.12 104.23 77.12 78.72 154.38 78.72 545.01"/>
        <polygon class="cls-3" points="85.37 545.01 82.67 545.01 82.67 154.38 101.53 115.6 104.23 115.6 85.37 154.2 85.37 545.01"/>
      </g>
    </g>
  </g>
</svg>
