<svg xmlns="http://www.w3.org/2000/svg" width="13.93in" height="8.5in" viewBox="0 0 1002.99 612">
  <defs>
    <style>
      .cls-1 {
        fill: #662d91;
      }

      .cls-2 {
        fill: #f3caa1;
      }

      .cls-3 {
        fill: #fff;
      }

      .cls-4 {
        fill: #231f20;
      }

      .cls-5 {
        fill: #f7941d;
      }

      .cls-6 {
        fill: #ec008c;
      }

      .cls-7 {
        fill: #699b9b;
      }

      .cls-8 {
        fill: #808285;
      }
    </style>
  </defs>
  <title>Artboard 1</title>
  <g id="guitarplayer">
    <g>
      <g>
        <path class="cls-1" d="M142.14,397.91a11,11,0,0,0,0-3.57q-4.62-29.76-10.1-59.4c-1.08-5.82-6.65-6.86-10.83-4.77-4.29-4.75-14.26-3.07-14.08,5.09a191.39,191.39,0,0,0,12.86,65,10.79,10.79,0,0,0,1.74,3c1.06,23.08,2.3,46.15,5.18,69.08.54,4.29,3.29,8,8,8a8.11,8.11,0,0,0,8-8l.55-49.09C143.58,415.94,144.73,405.55,142.14,397.91Z"/>
        <circle class="cls-1" cx="109.61" cy="211.43" r="28.42"/>
        <path class="cls-1" d="M97.08,328.38a7.39,7.39,0,0,0-6.36,3.38,7.59,7.59,0,0,0-7,7.65,1147.67,1147.67,0,0,1-10,132.26c-1,7.68,9,9.42,13.66,5.65,7.81-6.36,9.18-16.79,9.52-26.24.45-12.71.89-25.41,1.62-38.11q2.17-38.39,6.6-76.59C105.58,332.08,101.05,328.38,97.08,328.38Z"/>
        <path class="cls-2" d="M77.74,320.55a6.11,6.11,0,0,1-1.92.54c.26-.14.51-.29.76-.45C77.08,320.32,77.44,320.31,77.74,320.55Z"/>
        <path class="cls-2" d="M138.15,301.44l1.89-1c-.06.45-.13.9-.2,1.35-.2,1.32-.41,2.63-.65,3.95-.05.33-.11.66-.17,1-.23,1.31-.48,2.62-.74,3.93-.11.57-.22,1.13-.35,1.69-.17.89-.36,1.77-.56,2.65-.71,3.2-1.17,6.6-4.11,8.55a10.34,10.34,0,0,1-5.14,1.41c-.48,0-1,0-1.44,0s-1,0-1.55,0h-.36c-.67,0-1.32,0-1.93,0l-.41,0h-.33l-11.9.47h-.39l-2.33.1h-.36l-1.63.06-1.44.06-8.1.32a4.66,4.66,0,0,1-1.57-.22,6.3,6.3,0,0,1-3.4.22c-2.66-.6-3.93-3.08-3.94-5.56a5.44,5.44,0,0,1-.69-2q-1.16-7.9-2-15.84c0-.26-.06-.52-.08-.78,2.63.09,5.27.25,7.9.4A10,10,0,0,0,99.38,300c1.88-1.58,3.7-3.26,5.44-5A23.41,23.41,0,0,1,117,288.3a13.84,13.84,0,0,1,14.56,5.48c1.79,2.33,3.4,4.79,5,7.23C137,301.72,137.38,301.84,138.15,301.44Z"/>
        <path class="cls-1" d="M181.18,287.38a4.59,4.59,0,0,1-1.82,3.74c-3.82,3.22-10,8.16-16.06,10.11-3.12,1.87-6.59,3.69-9.54,3.29a6.1,6.1,0,0,1-1.54-.4,5.36,5.36,0,0,1-.92-.48,3.88,3.88,0,0,1-.58-.42c-1.87-1.5-2.91-4-3.79-6.36q13.29-6.94,26.59-13.86l2-1.05a5.56,5.56,0,0,1,1.29.25,4.71,4.71,0,0,1,.71.27,6.28,6.28,0,0,1,3.54,4A3.72,3.72,0,0,1,181.18,287.38Z"/>
        <g id="IM3lqJ">
          <g>
            <path class="cls-3" d="M188.4,275.05a3,3,0,0,1-.71.53c-2.19,1.17-4.4,2.33-6.61,3.48L175.53,282l-.24.13-1.77.92q-13.31,6.93-26.59,13.86L140,300.45l-1.89,1c-.77.4-1.11.28-1.58-.43-1.61-2.44-3.22-4.9-5-7.23A13.84,13.84,0,0,0,117,288.3,23.41,23.41,0,0,0,104.82,295c-1.74,1.74-3.56,3.42-5.44,5a10,10,0,0,1-7.23,2.38c-2.63-.15-5.27-.31-7.9-.4l-2.07-.05a36.49,36.49,0,0,0-13.29,2c.38.15.76.3,1.15.47,6.74,2.84,14.65,7.76,10.15,14a7.13,7.13,0,0,1-.86,1,1,1,0,0,1-.15.14l-.36.3a1.64,1.64,0,0,1-.26.2l-.27.18a5.86,5.86,0,0,1-.55.3c-.3-.24-.66-.23-1.16.09-.25.16-.5.31-.76.45l-.44,0h-.44c-.24,0-.47,0-.71,0a10,10,0,0,1-1.08-.14l-.51-.1-.77-.18-.6-.17-.89-.27-.58-.2-.73-.26-13-4.7-.78-.28a24.33,24.33,0,0,0-2.21,5,23.91,23.91,0,0,0-.3,12.45,61.47,61.47,0,0,0,19.79,33.28A23.63,23.63,0,0,0,82.71,371a22.84,22.84,0,0,0,5.07.62c5.2,0,10-.91,14-3.37a21.23,21.23,0,0,0,6.7-6.48c.3-.44.59-.88.88-1.33,2.46-3.68,4.82-7.43,7-11.26,2-3.5,4.62-6.08,8.53-7.2,1.53-.44,3.1-.75,4.67-1.09,1.14-.24,2.3-.4,3.45-.65l.28-.06c5.67-1.33,11.67-6.69,12.2-14.2a27.65,27.65,0,0,0-3-14.6c-.66-1.3-.94-1.12.6-2l9.08-5.24q10.82-6.24,21.63-12.5l7.33-4.24.69-.4c2.32-1.35,4.65-2.69,7-4.05a23.2,23.2,0,0,1,2.86-1.44Z"/>
            <path class="cls-4" d="M142.59,313.42c-.42-1-.91-1.9-1.4-2.9-.53.29-.91.48-1.28.7l-2,1.14c-2.57,1.49-5.14,3-7.73,4.44a1.58,1.58,0,0,0-1,1.79,12,12,0,0,1-1.1,6.38s0,0,0,0a14.46,14.46,0,0,1-2.95,4.17,13.33,13.33,0,0,1-16,1.92l-.74-.44a12.67,12.67,0,0,1-4.41-4.88,13.37,13.37,0,0,1,19.07-17.5,1.52,1.52,0,0,0,1.74.06c3.54-1.87,7.1-3.71,10.64-5.55.26-.14.51-.31.83-.5a2.74,2.74,0,0,0-.19-.47c-1.94-2.79-3.74-5.69-5.87-8.32a12.46,12.46,0,0,0-12-4.6,22.37,22.37,0,0,0-12.55,6.34c-1.94,1.86-3.89,3.74-6,5.47a10.29,10.29,0,0,1-7.43,2.42c-2.22-.13-4.45-.24-6.68-.36l-1.3,0A40.1,40.1,0,0,0,70,304.41c6.74,2.84,14.65,7.76,10.15,14l-11.12,1.36-13-4.7a23.49,23.49,0,0,0-2,4.29A21.76,21.76,0,0,0,53.39,331a59.74,59.74,0,0,0,20.36,34.43,21.87,21.87,0,0,0,9,4.72,23.63,23.63,0,0,0,7.92.56,24.84,24.84,0,0,0,11.24-3.52,19.72,19.72,0,0,0,5.93-5.87l1.38-2.08c2.15-3.21,4.28-6.44,6.1-9.84,2.54-4.74,6.18-7.74,11.42-8.82,1.21-.25,2.43-.44,3.64-.67.84-.16,1.69-.31,2.53-.52a5.78,5.78,0,0,0,.69-.17A15.29,15.29,0,0,0,144.71,326,25.86,25.86,0,0,0,142.59,313.42Z"/>
            <path class="cls-1" d="M172.69,282.48l-15.17,7.34a30.7,30.7,0,0,1-2.26-5.69c-.85-2.54-1.41-5.17-2-7.77-.35-1.56-.73-3.14-1.14-4.71-.88-6-1.21-12.17-5-17.21-3.23-4.34-8.19-6.48-13.43-7.19a40,40,0,0,0-18.33,1.88,14.34,14.34,0,0,1-10,.1,51.26,51.26,0,0,0-6.14-1.71,5.65,5.65,0,0,0-1.81-.41,46,46,0,0,0-18.94,2.78,4.66,4.66,0,0,0-1.59.6c-.67.26-1.33.52-2,.81a5.59,5.59,0,0,0-.94.52,9.64,9.64,0,0,0-4,4.7A20.19,20.19,0,0,0,68.47,261c-2.07,4.24-3.54,8.89-5.23,13.35L51.3,305.75c-1.66,2.77-1.13,7.2,2.86,8.65l1.14.41.78.28,13,4.7c2.23.81,4.6,1.55,6.75,1.3.26-.14.51-.29.76-.45.5-.32.86-.33,1.16-.09a6.35,6.35,0,0,0,2.45-2.12c4.5-6.26-3.41-11.18-10.15-14-.39-.17-.77-.32-1.15-.47-1.56-.63-3-1.13-4.18-1.5,3-6.21,6.34-12.25,9.11-18.57A203.21,203.21,0,0,0,82,261.74,391,391,0,0,0,84.25,302c2.63.09,5.27.25,7.9.4A10,10,0,0,0,99.38,300c1.88-1.58,3.7-3.26,5.44-5A23.41,23.41,0,0,1,117,288.3a13.84,13.84,0,0,1,14.56,5.48c1.79,2.33,3.4,4.79,5,7.23.47.71.81.83,1.58.43l1.89-1c.92-6.15,1.55-12.35,1.91-18.56,1.38,4.5,2.73,9,4.4,13.41.19.5.38,1,.58,1.56q13.29-6.94,26.59-13.86l2-1.05A5.45,5.45,0,0,0,172.69,282.48Z"/>
            <path class="cls-5" d="M108.29,316.43a8.15,8.15,0,0,1,10.56-4.53,2.77,2.77,0,0,1,1.24,1.05c1.3,2.24,2.55,4.52,3.78,6.8a2,2,0,0,1,.2,1.13,8.25,8.25,0,1,1-15.78-4.45Z"/>
            <path class="cls-5" d="M105.33,322.17l-1,.39a13.66,13.66,0,0,1-.54-2.47,11.61,11.61,0,0,1,5.53-10.75,11.84,11.84,0,0,1,12-.71,12.84,12.84,0,0,1,1.14.71,1.59,1.59,0,0,1-2.2.47,10.66,10.66,0,0,0-14.37,6.06,10.49,10.49,0,0,0-.57,5.21A9.87,9.87,0,0,1,105.33,322.17Z"/>
            <path class="cls-3" d="M121.73,310.94c.41-.23.67-.38.92-.54s.39-.26.67-.44l3.24,5.77c.06.11.11.24.17.35.8,1.46.78,1.52-1,2.12Z"/>
            <path class="cls-3" d="M122.81,314.59c.71,1.2,1.44,2.39,2.12,3.6.08.16-.06.45-.1.68-.23-.12-.57-.17-.67-.35-.7-1.21-1.35-2.45-2-3.68Z"/>
            <path class="cls-3" d="M122.81,314.59l-.66.25-1.76-3.1.19-.3c.23.09.58.12.68.29C121.81,312.67,122.3,313.64,122.81,314.59Z"/>
          </g>
        </g>
        <path class="cls-1" d="M177.67,277.33a3,3,0,0,0-2.9,2.21,3,3,0,0,0,.74,2.8,7.9,7.9,0,0,1-.5,2.29,17.28,17.28,0,0,1-1.48,3.68c-1.82,3.41,3.36,6.45,5.18,3l.3-.58a2.46,2.46,0,0,0,2.57-2.15C182.36,284.45,183.47,277.94,177.67,277.33Z"/>
        <path class="cls-1" d="M82.28,218.38a41.65,41.65,0,1,1,78.59-27.61Z"/>
        <rect class="cls-5" x="83.12" y="317.29" width="4.27" height="35.39" rx="2.13" transform="translate(-156.07 87.51) rotate(-30)"/>
        <circle class="cls-3" cx="122.48" cy="209.34" r="6.47"/>
      </g>
      <path class="cls-4" d="M211.64,271.4c-.06.52-.45.93-1.15,1.35-1.38.8-2.77,1.57-4.3,2.44.39.46.71.82,1,1.19s.74,1.16.1,1.57a2.07,2.07,0,0,1-1.72.12c-.63-.29-.57-1-.12-1.54a3,3,0,0,0,.3-.7l-.19-.24-3.28,1.82,0,.32a7.49,7.49,0,0,1,1.14.55c.32.22.78.55.8.86a1.46,1.46,0,0,1-.63,1,4.06,4.06,0,0,1-1.37.57,1.09,1.09,0,0,1-.9-.1,1.13,1.13,0,0,1-.09-.9,15,15,0,0,1,.51-1.61l-.28-.2c-1,.55-2,1.07-2.9,1.68-.52.35-.25.78.22.83.87.1,1.09.55.88,1.3a1.42,1.42,0,0,1-1.69,1c-.55-.17-.92-.48-.77-1.18.28-1.2,0-1.36-1.18-1.23a15.78,15.78,0,0,0-4.29,1.13l-3.3-6.44a9,9,0,0,0,.81-.95c.83-1.08,1.55-2.24,2.37-3.33.51-.69.48-1.14-.26-1.58-.12-.07-.25-.11-.37-.17-.48-.26-1.29-.19-1.16-1.09a2.21,2.21,0,0,1,1.85-1.59c.91,0,1,.64,1,1.32s0,1.25.08,1.88l.38.08c.84-.52,1.72-1,2.52-1.58a.89.89,0,0,0,.13-.86,1.53,1.53,0,0,0-.76-.6c-.69-.33-1.12-.75-.76-1.56s1.4-1.36,2-1.06a1.49,1.49,0,0,1,.74,1.87c-.12.42-.19.84-.28,1.27l.28.18c1-.57,1.93-1.13,2.86-1.74.15-.1.24-.6.15-.68-.24-.21-.64-.47-.9-.4-.6.17-1.09.32-1.41-.4a1.37,1.37,0,0,1,.5-1.76,3.43,3.43,0,0,1,1.25-.79,1.62,1.62,0,0,1,1.34.22,3.13,3.13,0,0,1,.37,1.52c0,.16-.22.34-.24.53a4.41,4.41,0,0,0,0,.81,1.86,1.86,0,0,0,.72-.08c1.19-.66,2.36-1.37,3.54-2.05.83-.48,1.37-.6,1.84-.25a2.25,2.25,0,0,1,.65.81q2,3.53,3.78,7.16A2,2,0,0,1,211.64,271.4Z"/>
    </g>
  </g>
  <g id="singer">
    <g>
      <circle class="cls-6" cx="301.36" cy="225.54" r="29.58"/>
      <polygon class="cls-6" points="271.78 225.54 257.1 190.04 277.69 207.79 277.69 168.19 289.56 198.41 303.94 159.46 312.02 197.95 330.93 182.41 322.95 205.34 347.74 202.27 330.93 225.54 271.78 225.54"/>
      <circle class="cls-3" cx="310.41" cy="225.54" r="6.47"/>
      <circle class="cls-3" cx="292.89" cy="225.54" r="6.47"/>
      <path class="cls-6" d="M322.64,353.15a40.76,40.76,0,0,0,1.09-7.57c.86-15.38,1.75-30.82,1.53-46.25,4.45,3.56,9,6.43,14.68,4.82,4.64-1.3,9.18-4.57,13.3-7.25a139,139,0,0,0,13.81-10.33c4.32-3.65,6.52-9.83,3.58-15.53-2.64-5.13-9.12-7.42-13.68-4.08l-6.23,4.56a11.92,11.92,0,0,0-2.08,2l-1.75,1.27c-3,2.1-6.9,3.74-9.83,6.05-1.42-1.52-3.91-2.89-5.29-4l-2.38-1.93c-.06-.1-.12-.2-.19-.3-4.07-5.71-7.53-11.79-14.3-13.25a54.81,54.81,0,0,0-17.34-.93c-5.2-.64-10.22-.18-15.38,2.87a9.66,9.66,0,0,0-3.74,3.89,12.33,12.33,0,0,0-1.33,1.43q-17.62,22.47-34.09,46c-3.35,4.8-4.13,11.38,0,16.06,3.48,4,10.77,4.84,14.14,0q10-14.34,20.5-28.28c0,.1,0,.2,0,.3.05.58.09,1.18.14,1.78,0,.22,0,.43,0,.65q-.52,24.19,1.09,48.32a15.66,15.66,0,0,0,.44,2.78c-.05.11-.09.23-.14.34.21,2.87.24,5.72.32,8.71l0,.63c.41,3.81.93,7.6,1.34,11.4q1.59,8,3.27,16c.31,4.47.5,6.2-1.38,10-1.66,3.34-3.31,6.68-4.86,10.09a273.66,273.66,0,0,0-15.62,44.44c-3.64,14.06,15.66,20.06,19.28,6a239.51,239.51,0,0,1,16.2-44.56A79.1,79.1,0,0,0,303,406.65a3.59,3.59,0,0,1,.49-1.25c.83-2.24,2.1-4.35,3-6.5a19.07,19.07,0,0,0,1.24-4.42,30,30,0,0,0-.33-7.3c-1.43-7.18-3.71-14.32-5.46-21.32a11.64,11.64,0,0,0-.92-2.45,35.38,35.38,0,0,1,4.1.81q24.76,54.09,46.31,110c2.16,5.62,9.4,6.91,13.68,4.07,5.1-3.39,5.76-9.89,3.58-15.53Q347.34,407.07,322.64,353.15Z"/>
      <g>
        <path d="M354.57,256.13c1.27-1.24,1.26-1.25,2.47.08.29.32.55.66.83,1l9.19,10.74c2.74,3.19,5.49,6.38,8.21,9.6a1,1,0,0,1,.08.92c-.79,1-1.66,1.89-2.5,2.82l-23.49-20.1C351.2,259.4,352.9,257.78,354.57,256.13Z"/>
        <path class="cls-1" d="M338.4,255.45l11.47-11.66c-1.28-1.9-6.47-2.8-9.83-.41A8.37,8.37,0,0,0,338.4,255.45Z"/>
        <path class="cls-1" d="M341.46,258.51a8,8,0,0,0,4.66,1.87c.2,0,.45,0,.58.08,1,.84,1.72.27,2.45-.48,1.83-1.88,3.69-3.73,5.55-5.58a1.66,1.66,0,0,0,.42-2.27c-.46-.86-.35-2-.68-2.95a15.08,15.08,0,0,0-1.22-2.33Z"/>
        <path class="cls-1" d="M376.53,279.15c-.88.85-1.7,1.62-2.47,2.43a.77.77,0,0,0,.1.73c.92.72,1.57,1.87,2.93,1.91a.1.1,0,0,1,.08,0c1.56,1.32,3.46,2.22,4.72,3.92a4.07,4.07,0,0,1-.42,5.11,3.51,3.51,0,0,1-4.84.62,50.39,50.39,0,0,1-4.26-4,5.42,5.42,0,0,0-6.26-1.42,5.07,5.07,0,0,0-2.85,6c.06.29.56.49.85.73.09-.31.31-.65.24-.92a4.09,4.09,0,0,1,1.91-4.61,3.85,3.85,0,0,1,4.83.64c1.36,1.26,2.72,2.54,4,3.9a5.16,5.16,0,0,0,7.54-7c-.26-.3-.56-.57-.81-.88a19.08,19.08,0,0,1-2.86-3.76A12.59,12.59,0,0,0,376.53,279.15Z"/>
        <path d="M338.79,257.2c.32.34.51.72.79.8a1.17,1.17,0,0,0,.92-.31q2.69-2.59,5.32-5.24c2.05-2,4.1-4.07,6.12-6.13.37-.37,1.1-.74.41-1.44s-1.18-.3-1.7.21q-5.5,5.52-11,11A12.23,12.23,0,0,0,338.79,257.2Z"/>
      </g>
      <path class="cls-6" d="M371.45,272.59l-.29-.16a.48.48,0,0,0-.09-.53l-5.25-5.79a.39.39,0,0,0-.39-.15.77.77,0,0,1,0-.15.5.5,0,0,0-1,0,5.73,5.73,0,0,0,.86,2.67,15,15,0,0,0,1.48,2.43,6.33,6.33,0,0,0,4.45,2.62A.51.51,0,0,0,371.45,272.59Z"/>
    </g>
  </g>
  <g id="drummer">
    <g>
      <g>
        <circle class="cls-7" cx="530.95" cy="274.74" r="29.58"/>
        <path class="cls-7" d="M493.72,276.4c0-22.75,16.67-41.2,37.23-41.2s37.22,18.45,37.22,41.2"/>
        <circle class="cls-3" cx="539.71" cy="277.3" r="6.47"/>
        <circle class="cls-3" cx="522.18" cy="277.3" r="6.47"/>
        <path class="cls-7" d="M619,275.91c-14.12,8.9-28.47,18.12-44.5,23.19-7.51,2.37-15.3,3.48-22.92,5.4-7.4,1.87-13.58,5-20.1,8.82-.48.28-2.32,1.21-2.2,1.35-.86-.12-2.92-2.49-3.73-3.1a44.78,44.78,0,0,0-9.24-5.34c-6.85-3-14.07-4.67-21.25-6.64a107.46,107.46,0,0,1-36.6-17.94c-.53-.55-1.07-1.09-1.58-1.67a7.11,7.11,0,0,0-3.1-2.1l-.22-.19c-7.28-6.26-17.94,4.31-10.6,10.61q2.49,2.15,5.08,4.16c12,12.29,28,18.59,42.61,27.16a94.89,94.89,0,0,1,10.11,6.73c7,15,5.86,32.5,2.27,48.54-.82,3.68,1.1,8.47,5.24,9.23a149.07,149.07,0,0,0,48.7.77c3.15-.46,5.56-4.24,5.5-7.23-.2-11.36-.45-22.72-.6-34.07-.07-5,.3-9,3-13.31.19-.32.41-.62.61-.93a51.3,51.3,0,0,1,7.62-4.37c19.2-9.39,36.17-23.72,53.49-36.11C634.28,283.35,627.31,270.68,619,275.91Z"/>
        <path class="cls-7" d="M603.28,455.69q-7.14.3-14.29.11a7.5,7.5,0,0,0,0,15q7.14.19,14.29-.11a7.66,7.66,0,0,0,7.5-7.5C610.78,459.26,607.34,455.51,603.28,455.69Z"/>
        <path class="cls-7" d="M469,456.9q-7.14.3-14.28.11a7.5,7.5,0,0,0,0,15q7.14.19,14.28-.11a7.66,7.66,0,0,0,7.5-7.5C476.51,460.47,473.08,456.72,469,456.9Z"/>
        <path class="cls-7" d="M486,368.92c-9.91-.73-22.12-1-31.51,2.76-10.92,4.36-8.39,17.53-7.37,26.93,1.14,10.5,4.54,20.4,5.14,30.89.63,11.15,4.93,21.19,9.45,31.25,3.49,7.77,16.22,2.25,13.71-5.78-2.06-6.57-3.85-13.21-5.31-19.94-1.29-6-3.15-12.59-2.59-18.74.52-5.82,3.72-11.41,6.65-16.36,2.14-3.62,6-11.58,10.39-12.7a6.84,6.84,0,0,0,4.89-3.85C495.39,380.72,494.22,369.53,486,368.92Z"/>
        <path class="cls-7" d="M570,368.92c9.91-.73,22.12-1,31.51,2.76,10.92,4.36,8.39,17.53,7.37,26.93-1.14,10.5-4.55,20.4-5.14,30.89-.64,11.15-4.94,21.19-9.45,31.25-3.49,7.77-16.22,2.25-13.71-5.78,2-6.57,3.85-13.21,5.31-19.94,1.29-6,3.15-12.59,2.59-18.74-.52-5.82-3.72-11.41-6.65-16.36-2.14-3.62-6-11.58-10.4-12.7a6.82,6.82,0,0,1-4.88-3.85C560.59,380.72,561.77,369.53,570,368.92Z"/>
        <rect class="cls-4" x="418.28" y="390.85" width="55.45" height="37.56" rx="8.23"/>
        <rect class="cls-4" x="545.42" y="384.16" width="65.33" height="24.26" rx="7.18"/>
        <rect class="cls-4" x="418.54" y="396.28" width="3.91" height="78.68" rx="1.89"/>
        <rect class="cls-4" x="444.05" y="396.28" width="3.91" height="78.68" rx="1.89"/>
        <rect class="cls-4" x="471.78" y="396.28" width="3.91" height="78.68" rx="1.89"/>
        <rect class="cls-4" x="586.36" y="399.13" width="3.91" height="75.83" rx="1.72"/>
        <rect class="cls-4" x="530.83" y="337.83" width="53.32" height="43.64" rx="11.79"/>
        <rect class="cls-4" x="470.86" y="337.83" width="53.32" height="43.64" rx="11.79"/>
        <rect class="cls-8" x="553.54" y="398.26" width="143.78" height="5.55" rx="2.68" transform="translate(1026.46 -224.39) rotate(90)"/>
        <circle class="cls-3" cx="528.8" cy="420.35" r="66.93"/>
        <rect class="cls-4" x="412.31" y="470.89" width="16.37" height="4.08" rx="2.04"/>
        <rect class="cls-4" x="437.82" y="470.89" width="16.37" height="4.08" rx="2.04"/>
        <rect class="cls-4" x="465.55" y="470.89" width="16.37" height="4.08" rx="2.04"/>
        <rect class="cls-4" x="580.12" y="470.89" width="16.37" height="4.08" rx="2.04"/>
        <rect class="cls-4" x="617.24" y="470.89" width="16.37" height="4.08" rx="2.04"/>
        <rect class="cls-4" x="601.27" y="356.88" width="48.32" height="5.55" rx="2.02"/>
        <rect class="cls-4" x="601.27" y="347.87" width="48.32" height="5.55" rx="2.02"/>
        <rect class="cls-4" x="628.2" y="337.88" width="1.62" height="7.43"/>
        <rect class="cls-4" x="630.91" y="339.28" width="8.72" height="4.41" rx="2.21"/>
        <rect class="cls-4" x="628.56" y="341.08" width="4.71" height="0.82" rx="0.41"/>
      </g>
      <g>
        <rect class="cls-5" x="446.03" y="261.18" width="2.83" height="36.61" rx="1.42" transform="translate(-55.26 119.47) rotate(-14.33)"/>
        <rect class="cls-5" x="439.9" y="257.57" width="5.57" height="6.55" rx="2.78" transform="translate(-50.79 117.71) rotate(-14.33)"/>
        <rect class="cls-5" x="621.53" y="263.77" width="2.83" height="36.61" rx="1.42" transform="translate(1156.68 709.58) rotate(-165.67)"/>
        <rect class="cls-5" x="624.93" y="260.16" width="5.57" height="6.55" rx="2.78" transform="translate(1170.67 674.06) rotate(-165.67)"/>
      </g>
    </g>
  </g>
  <g id="bassplayer">
    <g>
      <path class="cls-5" d="M864.3,262.45c-6.89-4.78-14.57-8.23-22.31-11.38-8.3-3.37-17.23-7.51-26.27-8.09-4.4-.28-8.67,1-13.06.93-4-.09-7-2.75-10.68-4-10.57-3.73-17,2.09-21.17,10.28a69.91,69.91,0,0,0-12.4,27.12c-.95,4.26-1.2,9.09-6.15,9.9a58.6,58.6,0,0,1-21.72-1.09c-6.78-1.51-11.16,5.08-8.47,11,6.17,13.62,23,18.53,35.9,11.44a32.67,32.67,0,0,0,11.48-10.69c-1.78,7.56-3.51,15.13-5.12,22.73-1,4.7-1,9.35,3,12.64A260.36,260.36,0,0,0,756,468.37c.91,5.09,7.07,6.44,11,4.48,5.19-2.58,6.22-8.11,6.51-13.4a171.16,171.16,0,0,0-.25-18.4c-.65-12.27-1.77-24.65-.11-36.89,2.49-18.25,9.69-35.35,18.19-51.62A605.37,605.37,0,0,0,802.86,469.9c1.21,6.12,8.53,6.48,12.54,3.31,8.1-6.4,5-16.85,2.82-25.65q-1.92-15-2.85-30.15c.08-3.55.25-7.1.48-10.62,1.47-23.53,5.11-46.82,2.08-70.29a6.74,6.74,0,0,0,4-4.71q2-12,4.34-24c1.31,4.63,6.39,6.72,11,4.52,8.45-4.06,16.72-8.47,24.75-13.3,6.26-3.76,16.23-8,17.36-16.19C880.64,273.73,870.83,267,864.3,262.45Zm-8.88,21.42a11.07,11.07,0,0,1-3.33,3.58c-.8.47-1.59,1-2.4,1.42-7,3.45-17.08,4-21.51,9.46q2.79-13.69,6-27.32a65.64,65.64,0,0,1,16.3,4.35,5.63,5.63,0,0,0,1,.28C854.61,277.73,857.35,280.45,855.42,283.87Z"/>
      <g id="jrmjCA">
        <g>
          <path d="M863.31,346.51c-1.27,1.91-2.46,3.87-3.81,5.72-3.4,4.68-7.4,8.78-12.8,11.1-7,3-13.94,3.06-20.67-1.05-4.52-2.76-7.51-6.92-10.57-11-1.72-2.31-3.28-4.74-5.05-7C807,339.89,802.2,337.94,797,337c-3.39-.63-6.86-.87-10.28-1.37a44.39,44.39,0,0,1-14.75-4.55c-2.78-1.5-5.47-3.19-7.32-5.84a15.91,15.91,0,0,1-1.65-3.3,2,2,0,0,1,.57-2.35,2.38,2.38,0,0,1,2.64-.23c2,.8,3.91,1.76,5.94,2.38A45.86,45.86,0,0,0,785.51,324a9.25,9.25,0,0,0,5-1.12,4.7,4.7,0,0,0,2.45-3.76,3.12,3.12,0,0,0-1.48-3,24.55,24.55,0,0,0-2.32-1.35q-22.64-11.51-45.28-23-19.56-9.93-39.14-19.86l-18.34-9.25a5.94,5.94,0,0,0-7.1.94c-2.2,1.94-2.2,1.94-4-.37-.28-.36-.58-.71-1.14-1.4a5.42,5.42,0,0,0-.33,1.7c.2.9.61,1.75.84,2.65.1.36.09,1-.12,1.13a1.56,1.56,0,0,1-1.26.09,41.54,41.54,0,0,1-4-1.7,1.55,1.55,0,0,1-.84-1.07c0-.35.47-.85.85-1,.62-.3,1.39-.28,2-.58a2.3,2.3,0,0,0,.73-3.87c-1.45-1.49-3-2.92-4.46-4.37-1.6,1.62-1.74,2.4-.92,4.24a1.54,1.54,0,0,1,.22.54c0,.58-.1,1.15-.16,1.73a8.25,8.25,0,0,1-1.58-.36,30.77,30.77,0,0,1-3.29-1.67c-.43-.26-1-.83-.93-1.21a1.54,1.54,0,0,1,1.14-1,3.15,3.15,0,0,0,3.28-2.56,1.12,1.12,0,0,0-.54-1.53c-1.81-1.06-3.61-2.15-5.45-3.15-1.56-.85-1.53-1-1.22-2.74a12.88,12.88,0,0,0-.14-3.91c-.28-2-.71-4-1.07-6.05l.51-1c1.26.72,2.51,1.48,3.79,2.16,2.13,1.13,4.28,2.22,6.42,3.31.66.34,1.06,0,1-.63-.11-.89-.46-1.75-.65-2.64-.11-.52-.34-1.21-.11-1.55.42-.62,1.08-.44,1.75-.06.92.53,2,.83,2.9,1.34a8.19,8.19,0,0,1,1.39,1.19,5.3,5.3,0,0,1-1.28,1.15c-1.06.49-2.31.67-2.89,2.36,2.49.55,4.85,1.12,7.23,1.56.84.16,1.63-.9,1.4-1.84-.17-.7-.66-1.31-.87-2a5.44,5.44,0,0,1,0-1.46,4.45,4.45,0,0,1,1.67,0,34.28,34.28,0,0,1,3.49,1.73,6.8,6.8,0,0,1,1,.81,5.08,5.08,0,0,1-.93,1.07c-.38.24-.92.2-1.33.4-.66.32-1.28.74-1.91,1.11l.14.41c1.38,0,2.75,0,4.13,0,1.68,0,2.07.33,2,2-.23,4,1.18,6.48,4.84,8.2l44.18,20.71q11.63,5.44,23.27,10.85,23.8,11.1,47.63,22.15a17.6,17.6,0,0,0,5.11,1.47,8,8,0,0,0,3.93-.66,4.79,4.79,0,0,0,2.53-6.17,14.72,14.72,0,0,0-4.44-6c-1-.9-2.07-1.65-3.06-2.52s-1.08-1.86.07-2.81a4.52,4.52,0,0,1,3.86-.84,15.53,15.53,0,0,1,8,4.25c2,1.85,4,3.72,5.85,5.7a12.88,12.88,0,0,0,11.87,4c3-.42,6-1,9-1.4a20.79,20.79,0,0,1,12,1.46c5.82,2.7,8.83,7.57,9.95,13.68s0,11.76-2,17.41c-.12.33-.17.67-.26,1Zm-13.49-3.1-.08-.24c.51-.24,1.16-.81,1.51-.66,1.93.8,3.78,1.78,5.74,2.73-.51,1.05-.92,1.84-1.28,2.65-.27.6-.63.67-1.2.38-1.56-.79-3.16-1.51-4.7-2.33a1.43,1.43,0,0,1-.54-1c-.07-.62-1.45-1.66-1.81-1.23a4.73,4.73,0,0,0-1.05,2.14c-.06.33.56.95,1,1.17,2.33,1.16,4.71,2.22,7.07,3.32,1.67.78,1.89.72,2.69-.91q3.32-6.82,6.6-13.66c.15-.31.25-.65.38-1,.4-.94.1-1.52-.83-1.93-2.31-1-4.59-2.12-6.88-3.2-2.12-1-2.22-1-3.16,1.16,0,0,0,.07,0,.1,0,.36.08.72.13,1.08.29-.16.56-.34.86-.48s.75-.5,1-.4c2.14.93,4.25,1.92,6.35,2.95a1,1,0,0,1,.36.89c-.37.92-.85,1.8-1.3,2.74-2.43-1.18-4.73-2.29-7-3.45-.2-.1-.2-.56-.32-.85s-.23-.48-.35-.72c-.24.13-.58.2-.7.4-.4.69-.72,1.43-1.08,2.17l1.39.68c.37-1.37,1.1-1.24,2-.72,1.16.63,2.37,1.16,3.56,1.74,2.41,1.15,2.37,1.13,1.22,3.52-.43.88-.89.89-1.64.49-1.81-1-3.65-1.92-5.48-2.88a2.81,2.81,0,0,1-.44-.33l.19-1.1-1.16-.49-1.32,2.71c.78.52,1.45,1.18,2.11-.08.08-.16.7-.2,1-.08,1.25.53,2.47,1.15,3.7,1.73,2.59,1.23,2.56,1.21,1.22,3.77-.35.67-.7.79-1.36.44-1.65-.86-3.33-1.68-5-2.52-.5-.25-1-.48-.73-1.23.07-.2-.29-.64-.56-.8a1,1,0,0,0-.92,0c-1.35,1.12-1.15,2.57.42,3.24A2.7,2.7,0,0,0,849.82,343.41Zm-3.16-9.34c-2-1-3.94-1.95-5.95-2.86-.24-.11-.75.12-1,.35a6.28,6.28,0,0,0-.6,1.12c-.44.71-.21,1.1.51,1.43,1.24.56,2.44,1.19,3.66,1.79,2.47,1.22,2.59,1.17,3.4-1.54A1.48,1.48,0,0,0,846.66,334.07ZM845.33,329l0,.05-1.67-.82c-1.89-.91-1.85-.88-2.78,1-.41.81-.19,1.16.57,1.49,1.31.58,2.59,1.24,3.88,1.87,2.06,1,2,1,2.94-1.14.28-.67.11-1-.51-1.25C846.93,329.77,846.14,329.36,845.33,329Zm-14.22-11.1h0l-1.46-.71c-2.1-1-2.07-1-3,1.11-.36.77-.15,1.11.57,1.41,1.35.57,2.68,1.2,4,1.82,2.25,1.06,1.64.93,2.77-1,.44-.73.21-1.23-.56-1.56S831.88,318.23,831.11,317.86Zm-6.71,13.89v0c-.87-.43-1.76-.83-2.62-1.29-.59-.32-1-.28-1.31.36s-1.13,1.63-.26,2.16a37.35,37.35,0,0,0,5.76,2.8c1.15.45,1.14-.84,1.52-1.48s.16-1-.48-1.25C826.13,332.63,825.27,332.17,824.4,331.75Zm17.38,4.33v0l-1.89-.92c-1.66-.81-1.62-.79-2.44.86-.4.79-.24,1.16.54,1.52,1.62.75,3.22,1.56,4.79,2.41.8.43,1.3.35,1.58-.55a2.35,2.35,0,0,1,.25-.53c.53-.78.43-1.31-.52-1.66S842.55,336.45,841.78,336.08Zm-13.85-11.94,0,0c.84.41,1.69.78,2.5,1.23s1.23.38,1.51-.5a4.61,4.61,0,0,1,.4-.84c.37-.63.25-1-.46-1.35q-2.53-1.14-5-2.39c-.71-.36-1.16-.28-1.46.48a5.45,5.45,0,0,1-.46.94c-.37.63-.16,1,.47,1.25C826.27,323.3,827.1,323.73,827.93,324.14Zm17.41,4.11,0-.1c.84.41,1.7.77,2.5,1.23s1.29.14,1.57-.64.95-1.57-.3-2.14c-1.58-.72-3.15-1.48-4.73-2.22s-1.42.68-1.88,1.36-.15,1.16.6,1.45S844.61,327.89,845.34,328.25Zm-20.49,2.57,0,.05c.91.44,1.82.87,2.71,1.33s1.09-.26,1.3-.8,1-1.19-.09-1.72c-1.82-.87-3.62-1.75-5.42-2.66-1-.49-1.11.33-1.38.88s-.82,1.16.19,1.6S823.94,330.38,824.85,330.82Zm2.83-5.91,0,0-2.72-1.33c-.88-.44-1.09.28-1.31.83s-1,1.16,0,1.66c1.83.93,3.67,1.85,5.54,2.71.24.11.75-.11,1-.33s.34-.69.54-1c.35-.61.21-1-.43-1.29C829.42,325.78,828.55,325.34,827.68,324.91Zm8.76,13a11.24,11.24,0,0,0-.67,1.83,1.1,1.1,0,0,0,.36,1c1.78.93,3.58,1.85,5.43,2.64,1,.44,1.12-.64,1.47-1.22s.38-.83-.24-1.13C840.73,340,838.69,339,836.44,337.89Zm-161.9-90.58a2.16,2.16,0,0,0,1.08,2.93,2.19,2.19,0,0,0,1.87-4A2.17,2.17,0,0,0,674.54,247.31Zm-5.81,1.93a2.14,2.14,0,0,0-2.93,1,2.22,2.22,0,0,0,1,2.89,2.19,2.19,0,0,0,3-1A2.13,2.13,0,0,0,668.73,249.24Zm7.84,5.9a2.18,2.18,0,0,0-2.94,1.06,2.26,2.26,0,0,0,1,2.89,2.17,2.17,0,0,0,3-1A2.1,2.1,0,0,0,676.57,255.14Zm-9-11.41a2.18,2.18,0,0,0-2.88,1,2.22,2.22,0,1,0,4,1.95A2.17,2.17,0,0,0,667.6,243.73ZM849,318.48a2.17,2.17,0,0,0,3.91,1.9,2.17,2.17,0,1,0-3.91-1.9Zm9.53,7a2,2,0,0,0,2.84-1,2.12,2.12,0,0,0-.91-2.89,2.15,2.15,0,0,0-2.94,1A2.06,2.06,0,0,0,858.5,325.47Z"/>
          <path class="cls-3" d="M849.82,343.41a2.7,2.7,0,0,1-.43-.12c-1.57-.67-1.77-2.12-.42-3.24a1,1,0,0,1,.92,0c.27.16.63.6.56.8-.23.75.23,1,.73,1.23,1.67.84,3.35,1.66,5,2.52.66.35,1,.23,1.36-.44,1.34-2.56,1.37-2.54-1.22-3.77-1.23-.58-2.45-1.2-3.7-1.73-.28-.12-.9-.08-1,.08-.66,1.26-1.33.6-2.11.08l1.32-2.71,1.16.49-.19,1.1a2.81,2.81,0,0,0,.44.33c1.83,1,3.67,1.9,5.48,2.88.75.4,1.21.39,1.64-.49,1.15-2.39,1.19-2.37-1.22-3.52-1.19-.58-2.4-1.11-3.56-1.74-.94-.52-1.67-.65-2,.72l-1.39-.68c.36-.74.68-1.48,1.08-2.17.12-.2.46-.27.7-.4.12.24.25.48.35.72s.12.75.32.85c2.28,1.16,4.58,2.27,7,3.45.45-.94.93-1.82,1.3-2.74a1,1,0,0,0-.36-.89c-2.1-1-4.21-2-6.35-2.95-.23-.1-.66.24-1,.4s-.57.32-.86.48c0-.36-.09-.72-.13-1.08,0,0,0-.07,0-.1.94-2.13,1-2.16,3.16-1.16,2.29,1.08,4.57,2.17,6.88,3.2.93.41,1.23,1,.83,1.93-.13.32-.23.66-.38,1q-3.3,6.84-6.6,13.66c-.8,1.63-1,1.69-2.69.91-2.36-1.1-4.74-2.16-7.07-3.32-.45-.22-1.07-.84-1-1.17a4.73,4.73,0,0,1,1.05-2.14c.36-.43,1.74.61,1.81,1.23a1.43,1.43,0,0,0,.54,1c1.54.82,3.14,1.54,4.7,2.33.57.29.93.22,1.2-.38.36-.81.77-1.6,1.28-2.65-2-.95-3.81-1.93-5.74-2.73-.35-.15-1,.42-1.51.66Z"/>
          <path class="cls-3" d="M846.66,334.07a1.48,1.48,0,0,1,0,.29c-.81,2.71-.93,2.76-3.4,1.54-1.22-.6-2.42-1.23-3.66-1.79-.72-.33-.95-.72-.51-1.43a6.28,6.28,0,0,1,.6-1.12c.23-.23.74-.46,1-.35C842.72,332.12,844.69,333.11,846.66,334.07Z"/>
          <path class="cls-3" d="M845.33,329c.81.4,1.6.81,2.41,1.17.62.27.79.58.51,1.25-.91,2.12-.88,2.13-2.94,1.14-1.29-.63-2.57-1.29-3.88-1.87-.76-.33-1-.68-.57-1.49.93-1.85.89-1.88,2.78-1l1.67.82Z"/>
          <path class="cls-3" d="M831.11,317.86c.77.37,1.52.77,2.3,1.12s1,.83.56,1.56c-1.13,1.89-.52,2-2.77,1-1.34-.62-2.67-1.25-4-1.82-.72-.3-.93-.64-.57-1.41,1-2.11.94-2.12,3-1.11l1.46.71Z"/>
          <path class="cls-3" d="M824.4,331.75c.87.42,1.73.88,2.62,1.27.64.27.85.64.48,1.25s-.37,1.93-1.52,1.48a37.35,37.35,0,0,1-5.76-2.8c-.87-.53-.08-1.45.26-2.16s.72-.68,1.31-.36c.86.46,1.75.86,2.62,1.29Z"/>
          <path class="cls-3" d="M841.78,336.08c.77.37,1.52.81,2.32,1.11s1,.88.52,1.66a2.35,2.35,0,0,0-.25.53c-.28.9-.78,1-1.58.55-1.57-.85-3.17-1.66-4.79-2.41-.78-.36-.94-.73-.54-1.52.82-1.65.78-1.67,2.44-.86l1.89.92Z"/>
          <path class="cls-3" d="M827.93,324.14c-.83-.41-1.66-.84-2.51-1.21-.63-.27-.84-.62-.47-1.25a5.45,5.45,0,0,0,.46-.94c.3-.76.75-.84,1.46-.48q2.49,1.25,5,2.39c.71.32.83.72.46,1.35a4.61,4.61,0,0,0-.4.84c-.28.88-.79.89-1.51.5s-1.66-.82-2.5-1.23Z"/>
          <path class="cls-3" d="M845.34,328.25c-.73-.36-1.45-.76-2.2-1.06s-1.13-.67-.6-1.45.44-2,1.88-1.36,3.15,1.5,4.73,2.22c1.25.57.57,1.38.3,2.14s-.71,1.14-1.57.64-1.66-.82-2.5-1.23Z"/>
          <path class="cls-3" d="M824.85,330.82c-.91-.44-1.8-.91-2.72-1.32s-.46-1.06-.19-1.6.39-1.37,1.38-.88c1.8.91,3.6,1.79,5.42,2.66,1.11.53.3,1.16.09,1.72s-.39,1.27-1.3.8-1.8-.89-2.71-1.33Z"/>
          <path class="cls-3" d="M827.68,324.91c.87.43,1.74.87,2.62,1.27.64.29.78.68.43,1.29-.2.33-.27.77-.54,1s-.75.44-1,.33c-1.87-.86-3.71-1.78-5.54-2.71-1-.5-.25-1.13,0-1.66s.43-1.27,1.31-.83l2.72,1.33Z"/>
          <path class="cls-3" d="M836.44,337.89c2.25,1.1,4.29,2.11,6.35,3.09.62.3.51.7.24,1.13s-.45,1.66-1.47,1.22c-1.85-.79-3.65-1.71-5.43-2.64a1.1,1.1,0,0,1-.36-1A11.24,11.24,0,0,1,836.44,337.89Z"/>
          <path class="cls-3" d="M674.54,247.31a2.17,2.17,0,0,1,3-1,2.19,2.19,0,0,1-1.87,4A2.16,2.16,0,0,1,674.54,247.31Z"/>
          <path class="cls-3" d="M668.73,249.24a2.13,2.13,0,0,1,1,2.94,2.19,2.19,0,0,1-3,1,2.22,2.22,0,0,1-1-2.89A2.14,2.14,0,0,1,668.73,249.24Z"/>
          <path class="cls-3" d="M676.57,255.14a2.1,2.1,0,0,1,1,2.92,2.17,2.17,0,0,1-3,1,2.26,2.26,0,0,1-1-2.89A2.18,2.18,0,0,1,676.57,255.14Z"/>
          <path class="cls-3" d="M667.6,243.73a2.17,2.17,0,0,1,1.1,2.93,2.22,2.22,0,1,1-4-1.95A2.18,2.18,0,0,1,667.6,243.73Z"/>
          <path class="cls-3" d="M849,318.48a2.17,2.17,0,1,1,3.91,1.9,2.17,2.17,0,0,1-3.91-1.9Z"/>
          <path class="cls-3" d="M858.5,325.47a2.06,2.06,0,0,1-1-2.83,2.15,2.15,0,0,1,2.94-1,2.12,2.12,0,0,1,.91,2.89A2,2,0,0,1,858.5,325.47Z"/>
        </g>
      </g>
      <path class="cls-5" d="M847.75,289.8c-1.92,1.15-3.82,2.34-5.71,3.55a6.88,6.88,0,0,0-4.88-.18,21.45,21.45,0,0,0-8.82,4.89c-2.24,2.15-3.36,5.06-5.36,7.35-5.54,6.32,1.37,15.95,9.09,11.77a111.89,111.89,0,0,0,11-6.55c4-2.77,8.07-5.38,12.22-7.88C863.58,297.77,856,284.79,847.75,289.8Z"/>
      <path class="cls-5" d="M738.46,287.41a.76.76,0,0,0-.08-.13,17.26,17.26,0,0,0-.25-4.35c-.35-2.49-3-4.61-5.24-5.23a7.39,7.39,0,0,0-7.29,1.92,19.46,19.46,0,0,0-4.94,12.56c-.07,3.93,3.5,7.68,7.5,7.5a8.26,8.26,0,0,0,3.62-1,7.26,7.26,0,0,0,4-1C738.84,295.69,741,290.74,738.46,287.41Z"/>
      <circle class="cls-5" cx="806.18" cy="207.86" r="29.58"/>
      <circle class="cls-3" cx="793.91" cy="214.33" r="6.47"/>
      <path class="cls-5" d="M835.12,201.89a20.1,20.1,0,0,0-4.58-21,9.92,9.92,0,0,0-2.84-2.07,13.54,13.54,0,0,0-6-.77l-14.83.29c-5.64.11-11.37.21-16.8-1.29s-10.63-4.87-13-10c-4.06,8.85-1.9,20,4.66,27.18s17,10.39,26.6,8.84c4.07-.66,8-2.1,12-3s8.4-1.09,12.18.58a21.38,21.38,0,0,0,2.7,1.17"/>
      <path class="cls-5" d="M810.81,178.18l-7.31-.29c-6.15-.24-12.89-.72-17.33-5a19.54,19.54,0,0,0,3.47,7.16"/>
      <path class="cls-5" d="M826.33,179.16l-6-.23c-5.06-.2-10.61-.6-14.27-4.11a16.19,16.19,0,0,0,2.86,5.9"/>
    </g>
  </g>
</svg>
