<svg xmlns="http://www.w3.org/2000/svg" width="712.9" height="326.78" viewBox="0 0 712.9 326.78">
  <defs>
    <style>
      .cls-1 {
        fill: #699b9b;
      }

      .cls-2 {
        fill: #c42761;
      }

      .cls-3 {
        fill: #dbb962;
      }

      .cls-4 {
        fill: #6b3257;
      }

      .cls-5 {
        fill: #6d3a5b;
      }

      .cls-6 {
        fill: #f3caa1;
      }

      .cls-7 {
        fill: #c2dcd9;
      }

      .cls-8 {
        fill: #628790;
      }

      .cls-9 {
        fill: #a7c4c4;
      }

      .cls-10 {
        fill: #603a28;
      }

      .cls-11 {
        fill: #8c5138;
      }

      .cls-12 {
        fill: #946686;
      }

      .cls-13 {
        fill: #767286;
      }

      .cls-14 {
        fill: #d9c6ae;
      }

      .cls-15 {
        fill: #4f5a64;
      }
    </style>
  </defs>
  <title>Asset 3</title>
  <g id="Layer_2" data-name="Layer 2">
    <g id="Layer_1-2" data-name="Layer 1">
      <g>
        <path class="cls-1" d="M203.16,225.66c-8.22,1.18-8.62-3.69-8.6-10.09.07-31.24-.16-62.48-.51-93.72,0-4,1.62-8.47-2.75-12.8-8.28,13.39-10.12,28.16-12.11,42.56-1.42,10.35-4.48,16.09-15.89,13.17-2.28-1.93-4.93-1.87-7.66-1.45-5.25-3.73-1.15-7.82-.12-11.46,7.14-25.13,19.84-48,29.53-72.11,2.7-6.71,11.86-6.49,15.66-12.49l.36-.1c5.65.89,11.23,1.1,16.48-1.75,18.63.24,36.71-4.35,55.06-6.45,6,.86,8.46,6.25,12.3,9.85,6.11,17.37,6.12,17-12.73,16.53-10-.27-23.17-7.65-28.93.18-3.81,5.17,3.21,18.34,5.43,27.91,7,30.49,13.81,61.05,21.42,91.39,1.81,7.2.56,10.55-6.43,11.94l-17.14,5.3-26,3.28Z"/>
        <path class="cls-2" d="M457.33,287.24c-20.53,22.29-49.49,24.65-74.33,6-1.65-1.24-2.92-3.37-5.3-1.27-1.32-4.07-3.55-7.93-2.82-12.47h-.09c-3.28-.23-3.76-3-4.65-5.27-9.42-24.33-1.43-44.05,16.23-61.2,20.37-12.13,40.9-12.25,61.59-.84C467.31,228,479.54,259,457.33,287.24Z"/>
        <path class="cls-1" d="M659.35,161.43c-1.67,14.83-2.26,29.89-5.26,44.44-4.81,23.32-.52,46,2,68.95.66,6,1,12,1.46,17.93-1,6.24-5.84,6.72-10.74,7.06-10.13-39.08-17.67-78.56-16.91-120.53-7.8,8.52-21.79,46.4-21.8,57.21,0,20.62,0,41.24,0,61.86l-10.76,2c-5.22-38.82-10.77-77.59.89-116.35,2.81-9.35,4.05-19.17,6-28.77,17.85,1,35.19,7.19,53.34,5.28A5.36,5.36,0,0,1,659.35,161.43Z"/>
        <path class="cls-3" d="M388.56,178.19c2.9-22.63,0-40.82-27-48-11.34-3-20.83-12.85-31.26-19.44-4.6-2.9-8.21-6.14-7-12.25,3.18-1.19,5.24-3.33,5.69-6.81l6.85.65q1.71,1.6,3.4,3.23c14.53,11.8,30.17,21.54,48.63,25.89,6.17,1.45,12.21,3.87,18.76,2.93,6.1,10.48,5.63,15.72,19.93.12,24.28-3.8,47.71-9.7,66.82-26.58,1.54-1.37,3.72-2,5.6-3a2.1,2.1,0,0,0,2.63-2l5.59-1.91a10.24,10.24,0,0,0,6.89,5.16c-1.3,11.19-12.12,13.63-18.83,19.48C484.61,125,472,132,458.81,137.25c-10.94,4.38-15,11.47-14.12,22.76.47,6-.3,12-.51,18C425.62,172.43,407.08,171.35,388.56,178.19Z"/>
        <path class="cls-4" d="M90.35,46.22c7.12-.38,10.62,3.91,12.78,9.92q5.75,16,11.51,32c-7.29,4.45-13,12.34-23.21,10.36-6.76-9.59-15-13.51-24.49-4.24-8.62,8.42-18.47,10-29.57,8.13L36,74.65,13.5,100.72l12.49,6c1.73,3.82,7.4,3.92,8.17,8.64l-3,5.43c-7.14,3.26-11.33-4.12-17.38-4.82C-3.83,101.33-3.87,101.3,9.71,81.71c5.63-8.11,11.91-15.79,17.12-24.15,5-8,11.43-12.31,21-11.42l.63.33.6-.4,6.86-.38c3,.88,6.91-.88,8.95,3.13s7,4.32,8.41,1.94C77.86,43.26,84.72,47.68,90.35,46.22Z"/>
        <path class="cls-3" d="M13.81,115.92c6,.7,10.24,8.08,17.38,4.82l3.2,3.68c0,2.1-.65,4.54,2.59,4.94l-.11-.13c1.51,7.41,5.12,13.41,12.5,19.19.94-9.29-6.46-13.36-7.39-19.82,1.44-3.78,8.62-4.11,6.79-9.24s-7.3-2-11.05-3l-3.56-1c-.77-4.72-6.44-4.82-8.16-8.64l11.37-4.31c11.1,1.83,21,.29,29.57-8.13,9.5-9.27,17.73-5.35,24.49,4.24-.08,7.27-7.61,7.56-11,11.74-6.36-.07-13.44-.87-15,7.62-.86,4.69.9,10.21,5.91,11.11,8.88,1.61,11-5.39,12.34-12.3,6.18-.39,10-5.55,15.29-7.66,3.06,8.87,10.27,18.15-2.56,25.41-11.28,7.1-24,12.83-26.51,28.18a14.21,14.21,0,0,0-2,1.1L39.4,173.89c-15.35-10.62-26.19-24.34-28.8-43.3C9.91,125.59,10.22,120.25,13.81,115.92Z"/>
        <path class="cls-4" d="M659.35,161.43a5.36,5.36,0,0,0-1.73-1c-4.53-9.13-13-10-21.7-10.32-12-.5-15.24-4.61-13.52-16.93.29-2.09.32-4.21.48-6.32,3.46-2.33,4.06-4.81.43-7.53,3.43-18.16,8.18-21.23,25.06-14.81,7.41,2.82,13.2.54,19.17-3.08,1.35,2.24,3,4.57,5.9,3.8,4.14-1.09,8.69-3.3,10.87,2.18,1.6,4-1.83,6.89-4.53,9.66-1.07,1.1-1.38,3-2,4.47-5.1,2.33-13.81,3.1-9.71,11.41,4.2,8.52,10.36,1.52,15-.92a118.47,118.47,0,0,0,19.51-12.33c6.75-5.42,6,.94,7.66,4-.89,6.78-1.18,13.71-2.78,20.33-6.12,25.37-20.59,31.44-43.46,18.69C662.62,162,660.9,161.86,659.35,161.43Zm-5-35.08c-.29-3.53-2.11-7.12-7.53-6.89-6.65.28-6.12,6.31-7,10.34-1,4.56,2.37,7,6.8,7C652.66,136.85,654.52,133,654.35,126.35Z"/>
        <path class="cls-2" d="M69.91,162.57c2.5-15.35,15.23-21.08,26.51-28.18,5.12,18.58,4.38,37.85,6.47,56.78,4,36.22,2.5,72.48-1.5,108.67-2.62-1.52-5.31-2.81-8.46-1.5-2.37-.8-3.24-2.62-3.25-4.94C89.56,270,84,246.64,87.35,223.14c1.18-8.16-6-12.33-7.25-19.58C77.79,189.72,73.42,176.22,69.91,162.57Z"/>
        <path class="cls-2" d="M39.4,173.89l28.48-10.22q-8.19,68.27-16.39,136.5c-3.86-1.1-7.66-4.4-11.66-.32Q39.62,236.87,39.4,173.89Z"/>
        <path class="cls-2" d="M667.54,101.48c-6,3.62-11.76,5.9-19.17,3.08-16.88-6.42-21.63-3.35-25,14.8-4.62-.63-10,1.7-13.54-3.23-3.34-13.75,2.23-27.37.61-41.09,1.81-10.13,11.15-4.52,16.25-7.79,3.08,1.9,6.3,3.29,10,2.76.34,2,.78,5.69,1,5.67,4.4-.27,9-.58,11.2-5.43,7.09,2.68,15.41,2,21.32,7.84V95.87Z"/>
        <path class="cls-5" d="M246.53,222.07l17.14-5.3L290.34,290c1.16,3.16,3.19,6.13,2.1,9.78l-9.86,0Q264.57,261,246.53,222.07Z"/>
        <path class="cls-5" d="M476.59,269.35c-.78,2.37-1.55,4.73-2.33,7.09-1.29,4.44-2,9.16-4,13.25-1.67,3.39-2.38,8.93-7.76,8.49-7.28-.59-3.76-7.09-5.14-10.94,22.21-28.28,10-59.29-9.37-75-.14-3.66.18-7.21,2.55-10.24l7.43-.58c4.51,3.77,10.25,2.6,15.4,3.84,3.8,3.81,2.74,8.65,2.78,13.24Q476.39,243.92,476.59,269.35Z"/>
        <path class="cls-6" d="M670.2,95.87V78.09c10.49-.26,41.29,18.4,42.52,27.08.85,6-1.54,12.39-2.49,18.59-1.61-3.07-.91-9.43-7.66-4a118.47,118.47,0,0,1-19.51,12.33c-4.66,2.44-10.82,9.44-15,.92-4.1-8.31,4.61-9.08,9.71-11.41,7.24-.19,10.31-7.16,16-9.86,7.81-3.71,4-5.74-.6-9.29C686.16,97,676.89,101.21,670.2,95.87Z"/>
        <path class="cls-7" d="M388.56,178.19c18.52-6.84,37.06-5.76,55.62-.15,4.78,3.46,6.74,8.08,5.69,13.92-21.43,5.52-42.84,7.45-64.16-.56Z"/>
        <path class="cls-5" d="M203.16,225.66l17.36-.31c.4,26.27-5.94,51.58-11.07,77.06l-9.47-.19c1.42-18.3,2.89-36.6,4.23-54.9C204.73,240.08,205.1,232.8,203.16,225.66Z"/>
        <path class="cls-5" d="M370.14,274.24c.89,2.29,1.37,5,4.65,5.27h.09c-.73,4.54,1.5,8.4,2.82,12.47-.29,1-.57,2-.85,2.94l-13.47-2.17c-1.58-6-.05-12.7-4.1-18.14.18-9.76.09-19.54.61-29.28.73-13.43-2.54-27.14,2.81-40.24l17.81-3.67,5,.37q.43,5.63.88,11.25C368.71,230.19,360.72,249.91,370.14,274.24Z"/>
        <path class="cls-2" d="M201.07,67.17l-.36.1c-11.86-1.54-21.47-20.64-14.18-30.3,4.33-5.74,3.86-8-1.13-12.13-3.85-3.2-5.79-9.09-.51-11.9,4-2.13,12.21-4.9,14.24.94,3.18,9.13,10.07,11.28,17.23,14.53,2,.92,3.15,3.87,4.68,5.89-3.1,4.9-8.83,4.85-13.39,6.85C196.41,46.07,194,53,202.17,62,205.77,65.86,199.83,65.25,201.07,67.17Z"/>
        <path class="cls-7" d="M326.21,175.93c-6.35-3.43-12.81-6.66-19-10.38-2.51-1.51-4.76-4-3.4-7.52,1.16-3,4.08-2.63,6.58-2.76,12-.62,24-.29,35.19,4.77,3.87,1.74,8.57,3.74,7.92,8.83-.55,4.34-5.51,6.45-8.83,6.16-13.88-1.26-13.38,7.17-13.29,16.94.31,30.85,0,61.7-.06,92.55-3.85-3.93-2.26-8.9-2.28-13.42-.15-27.33,0-54.67-.16-82C328.88,184.63,330.69,179.57,326.21,175.93Z"/>
        <path class="cls-6" d="M426.58,124.54c-14.3,15.6-13.83,10.36-19.93-.12-9-7.27-13.2-16.73-13.08-28.22,14.16,1.54,31.73-3.68,35.72,18C428.12,117.59,423.24,120,426.58,124.54Z"/>
        <path class="cls-6" d="M90.35,46.22c-5.63,1.46-12.49-3-17.09,4.54-1.46,2.38-6.4,2-8.41-1.94s-5.93-2.25-8.95-3.13c3.27-2.06,9.17-2.82,4.35-8.84.41-.74,1.35-1.64,1.18-2.19C56.91,20.88,60.51,16,75.3,15.94c5.14,0,10.27-.23,15.41-.35C91.07,27,88.46,36.72,75.86,40.93,80.1,46.59,86.61,42.34,90.35,46.22Z"/>
        <path class="cls-2" d="M622.87,126.9c-.15,2.11-.18,4.23-.47,6.32-1.72,12.32,1.5,16.43,13.52,16.93,8.73.36,17.17,1.19,21.7,10.32-18.15,1.91-35.49-4.31-53.34-5.28-2.66-8.24,1.07-15.71,2.83-23.41C610.23,123.25,617.57,128.35,622.87,126.9Z"/>
        <path class="cls-8" d="M448,212.2c-20.69-11.41-41.22-11.29-61.59.84q-.44-5.62-.88-11.25c.07-3.46.14-6.93.22-10.39,21.32,8,42.73,6.08,64.16.56.21,3.34.43,6.67.64,10C448.14,205,447.82,208.54,448,212.2Z"/>
        <path class="cls-7" d="M504.56,176l-1.28-.07c-7.76-.52-19.47,2-20-7.85-.44-7.68,11.21-10.53,18.87-12.06,7.4-1.47,15.27-.66,22.93-.69,3.14,0,6.14.94,6.87,4.45s-2,5.5-4.5,7c-5.45,3.44-11.58,5.29-17.87,6.55C507.47,173.43,505.63,174,504.56,176Z"/>
        <path class="cls-9" d="M504.56,176c1.07-2,2.91-2.53,5-2.62q.3,66.47.61,132.93l-4,.09c-.43-8.26-5.73-14.57-2.57-25,3.71-12.21,1.1-26.37,1.11-39.68C504.67,219.79,504.59,197.87,504.56,176Z"/>
        <path class="cls-10" d="M429.29,114.22c-4-21.7-21.56-16.48-35.72-18-2.62-3.9-6.09-8.2-3.36-12.8,3.32-5.61,8.44-1.08,12.78-.69,3.83.35,7.66.75,11.45,1.39C432.65,87.18,437.33,96.73,429.29,114.22Z"/>
        <path class="cls-10" d="M90.71,15.59c-5.14.12-10.27.33-15.41.35C60.51,16,56.91,20.88,61.43,34.66c.17.55-.77,1.45-1.18,2.19-7.9-5.83-10-13.75-7.14-22.69,3-9.32,11.49-10.35,19.64-11.34,3-.36,6-.14,8.91-.8,4.45-1,9.63-4.42,12.69.87C96.89,7.29,93.33,11.71,90.71,15.59Z"/>
        <path class="cls-11" d="M99,109c-5.32,2.11-9.11,7.27-15.29,7.66-2.68-1.34-2.93-3.9-3.25-6.43,3.38-4.18,10.91-4.47,11-11.74,10.16,2,15.92-5.91,23.21-10.36l25.57-13.42c1.52,5.2-.7,9.3-3.86,13.13-8,9.12-24.14,4.33-29.75,17.49A11.69,11.69,0,0,0,99,109Z"/>
        <path class="cls-10" d="M624.16,38.49c-1-4-4.6-8.14-1.19-12,3.56-4,7.88-.4,11.82.42,2.89.6,5.75,1.39,8.63,2,19.23,4.32,23.31,14,13.2,31.24-1.34-.67-4.11-.32-3.47-2.58,3.33-11.7-1.92-16.15-13-16A37.64,37.64,0,0,1,624.16,38.49Z"/>
        <path class="cls-6" d="M201.07,67.17c-1.24-1.92,4.7-1.31,1.1-5.22-8.22-9-5.76-15.88,5.48-20.8,4.56-2,10.29-1.95,13.39-6.85,7.21,11.32,4.86,21.56-3.49,31.12C212.3,68.27,206.72,68.06,201.07,67.17Z"/>
        <path class="cls-6" d="M624.16,38.49a37.64,37.64,0,0,0,16,3.11c11.05-.13,16.3,4.32,13,16-.64,2.26,2.13,1.91,3.47,2.58-1,4.56-8.26,4.32-7.73,10-2.24,4.85-6.81,5.16-11.21,5.43-.22,0-.66-3.7-1-5.67,5.93-3.85-12.5.15-12.64-9.81,0,0-2.5,0,0-5.41Z"/>
        <path class="cls-6" d="M604.08,126.15c-12.88,13.3-23,14.23-38,6-5.3-2.92-4.22-7.61-6.87-10.95,0-2.91-2.08-6.68,3-7.58l9.28.41c1.22,8.22,5.66,11,14.09,10.15C591.65,123.57,598.19,123.18,604.08,126.15Z"/>
        <path class="cls-7" d="M473.33,205.22c-5.14-1.24-10.88-.07-15.39-3.84-.54-1.6-2-3.73-1.48-4.72,4.82-8.63,36.41-11,42.87-3.53,3,3.42,1.24,5.21-1.79,7-3.93,2.25-9.55,1.79-11.55,7.16a5,5,0,0,1-2.09-.45C480.79,203.53,477,204.71,473.33,205.22Z"/>
        <path class="cls-7" d="M380.5,201.42l-17.8,3.67-12-.48c-4.52-3.23-14.61-1.42-13.25-9.26,1.48-8.59,11.05-7.33,17.28-6.24C364.17,190.78,377.2,186.48,380.5,201.42Z"/>
        <path class="cls-5" d="M106.6,105.31c5.61-13.16,21.77-8.37,29.75-17.49C137.59,91,137,95.47,142,96c-2.72,5.63-8.61,7.81-12.83,11.81C120.59,116,112.8,117.86,106.6,105.31Z"/>
        <path class="cls-12" d="M604.08,126.15c-5.89-3-12.43-2.58-18.46-2-8.43.84-12.87-1.93-14.09-10.15,7-2.12,13.79,1.24,20.73.62,5.61,3.17,11.62,1.67,17.52,1.49,3.59,4.93,8.92,2.6,13.54,3.23,3.62,2.73,3,5.21-.44,7.54-5.31,1.45-12.65-3.65-15.77,4.88Z"/>
        <path class="cls-6" d="M609.78,116.13c-5.9.18-11.91,1.68-17.52-1.49,6.14-13.15,7.32-28.58,18.13-39.6C612,88.76,606.44,102.38,609.78,116.13Z"/>
        <path class="cls-6" d="M284.91,68.82c-3.84-3.6-6.26-9-12.3-9.85,1.5-8.78-2.62-16.63-4.17-24.89-.47-.89-.95-1.77-1.43-2.66-.22-5,1.22-8.08,7.16-7.78,7.06.35,3,5,3.74,8C280.92,43.92,285.21,55.92,284.91,68.82Z"/>
        <path class="cls-9" d="M326.21,175.93c4.48,3.64,2.67,8.7,2.69,13.16.16,27.34,0,54.68.16,82,0,4.52-1.57,9.49,2.28,13.42-.53,7.24,2,15-2.15,21.41-6.76-1.45,2.38-11.48-7.39-10.46-.56-.53-1.09-1.09-1.6-1.67,5.57-8,6.2-16.95,6.08-26.49C325.88,236.85,326.18,206.39,326.21,175.93Z"/>
        <path class="cls-5" d="M562.25,113.61c-5.1.9-3,4.67-3,7.58-6.33-.32-14.21,4.09-18.13-4-1.84-3.78-2.2-11.4,2.73-12.19C550.66,103.94,560.62,101.35,562.25,113.61Z"/>
        <path class="cls-9" d="M474.26,276.44c.78-2.36,1.55-4.72,2.33-7.09,4.73-5.44-.93-13.37,4.45-18.67.06,8.18,0,16.36.18,24.54.28,13.84-3.1,28.29,9.07,40.54-11.91,1-14.09-3.87-14.34-12.56C475.7,294.31,478,285.13,474.26,276.44Z"/>
        <path class="cls-13" d="M350.7,204.61l12,.48c-5.36,13.09-2.09,26.81-2.81,40.23-.52,9.75-.43,19.53-.61,29.29-4.47-5.52.85-13.38-4.48-18.7l-.12-5.76c.07-11.49.16-23,.2-34.47,0-3.72,1-8.09-4.82-8.54C350.28,206.29,350.49,205.45,350.7,204.61Z"/>
        <path class="cls-11" d="M145.48,70.05c1.41-7.39,9-8.08,13.49-12.06,6.23-5.51,7.59,3.5,11.37,5.32,4.46,2.14.83,5.76-1.46,8-4.25,4.15-9.25,6.88-15.51,6.25C152.85,72.84,148.63,72,145.48,70.05Z"/>
        <path class="cls-6" d="M145.48,70.05c3.15,2,7.37,2.79,7.89,7.51C153.41,86.09,151,93.13,142,96c-5-.57-4.39-5-5.63-8.22,3.16-3.83,5.38-7.93,3.86-13.13A7.33,7.33,0,0,1,145.48,70.05Z"/>
        <path class="cls-6" d="M329,91.72c-.45,3.48-2.51,5.62-5.69,6.81-3.93-1.48-8-2.67-11.73-4.53s-3.7-5.59-2.64-8.89a11.1,11.1,0,0,1,8.21-7.24c5.43-1.38,2.78,3.83,4.33,5.64C323.91,86.32,326.49,89,329,91.72Z"/>
        <path class="cls-13" d="M481,250.68c-5.38,5.3.28,13.23-4.45,18.67q-.22-25.44-.47-50.89c0-4.59,1-9.43-2.78-13.24,3.67-.51,7.45-1.69,10.56,1.57-5.92,11.32-1.65,23.34-2.38,35Z"/>
        <path class="cls-14" d="M646.81,299.81c4.9-.34,9.72-.82,10.74-7.06,3.71,8.17,1.56,16.83,2.14,25.26l-12.12-1.77Q647.18,308,646.81,299.81Z"/>
        <path class="cls-15" d="M49.69,314.6c4.71,5.47,13.05,2.95,18.22,8-14.42,7.19-27.27,3.75-28.33-7.33Z"/>
        <path class="cls-15" d="M607.94,315.19c1.49,7.75-1.54,11.11-9.55,10.55-6.14-.42-12.34-.08-20.6-.08,6.16-8.49,15.5-5.12,20.06-10.91Z"/>
        <path class="cls-6" d="M514.11,96.24a10.24,10.24,0,0,1-6.89-5.16c2.37-3.7,8.34-4.85,7.65-10.74l.18-.16c14.13-1.92,9.11,13.94,17.08,18.35C526.15,95.38,520.47,92.76,514.11,96.24Z"/>
        <path class="cls-5" d="M350.06,207.14c5.85.45,4.83,4.82,4.82,8.54,0,11.49-.13,23-.2,34.47C351.47,236,345.05,222.18,350.06,207.14Z"/>
        <path class="cls-9" d="M363.38,292.75c-.45,5.26-5,7.16-8.32,10q-.12-23.43-.26-46.85c5.33,5.32,0,13.18,4.48,18.7C363.33,280.05,361.8,286.75,363.38,292.75Z"/>
        <path class="cls-6" d="M92.93,298.34c3.15-1.31,5.84,0,8.46,1.5q2.2,8.85,4.43,17.76a28.58,28.58,0,0,1-14.55-2.1C91.22,309.72,90,303.83,92.93,298.34Z"/>
        <path class="cls-15" d="M91.27,315.5a28.58,28.58,0,0,0,14.55,2.1L121.35,322C105.32,329.57,92.48,326.29,91.27,315.5Z"/>
        <path class="cls-15" d="M208.48,316.57c4,5.44,12.4,1.74,16.81,7.63-22.41,5-27.58,3.12-25.68-8.79Z"/>
        <path class="cls-15" d="M647.57,316.24,659.69,318c.36,4.25-.38,7.64-5.74,7.62-7.33,0-14.66,0-23.78,0C635.15,317.29,643.23,320.49,647.57,316.24Z"/>
        <path class="cls-15" d="M298.11,315.1c5.05,5.6,13.34,4.21,20.3,8.26-18.63,6.24-27.45,3.67-28.14-7.31Z"/>
        <path class="cls-6" d="M49.69,314.6l-10.11.64q.12-7.71.25-15.39c4-4.08,7.8-.78,11.66.32C50.88,305,50.29,309.79,49.69,314.6Z"/>
        <path class="cls-14" d="M155.64,163.33c2.73-.42,5.38-.48,7.66,1.45-1.86,5.9,3.33,17.84-5.23,16.82C147.35,180.31,159,169.43,155.64,163.33Z"/>
        <path class="cls-6" d="M607.94,315.19l-10.09-.44q-.24-7.23-.47-14.44l10.76-2Q608.05,306.78,607.94,315.19Z"/>
        <path class="cls-6" d="M298.11,315.1l-7.84.95-7.69-16.21,9.86,0C297.22,303.82,298,309.35,298.11,315.1Z"/>
        <path class="cls-15" d="M267,31.42c.48.89,1,1.77,1.43,2.66-1.19,1.18-2.4,2.35-3.57,3.56-2.54,2.61-5.27,4.42-8.79,1.69a4.54,4.54,0,0,1-1.39-5.68c1.74-4,5.06-3.76,8.57-2.79A29.22,29.22,0,0,0,267,31.42Z"/>
        <path class="cls-5" d="M481.52,241.81c.73-11.68-3.54-23.7,2.38-35a5,5,0,0,0,2.09.45C487.75,219.18,485.48,230.6,481.52,241.81Z"/>
        <path class="cls-6" d="M208.48,316.57l-8.87-1.16q.18-6.6.37-13.19l9.47.19Q209,309.49,208.48,316.57Z"/>
        <path class="cls-6" d="M514.87,80.34c-5.23-4.29-10.38-8.64-10.77-16.3,3.22,5.69,11.17,8,10.95,16.15Z"/>
        <path class="cls-9" d="M321.8,295.47l-7.69,15.2c-1.33-9.19.95-13.56,6.09-16.87C320.71,294.38,321.24,294.94,321.8,295.47Z"/>
        <path class="cls-6" d="M339.26,95.6q-1.69-1.62-3.4-3.23C338.6,91.76,338.81,93.81,339.26,95.6Z"/>
        <path class="cls-6" d="M501.63,93A2.1,2.1,0,0,1,499,95Z"/>
        <path class="cls-6" d="M49,46.07l-.6.4-.63-.33s.6-.84.6-.84Z"/>
        <path class="cls-6" d="M34.16,115.31l3.56,1c3.75,1,9.27-2,11.05,3s-5.35,5.46-6.79,9.24c-1.79-.47-3.7-1.93-5.11.63l.11.13c2.24-3.27-.87-3.74-2.59-4.94l-3.2-3.68Z"/>
        <path class="cls-10" d="M80.44,110.21c.32,2.53.57,5.09,3.25,6.43-1.38,6.91-3.46,13.91-12.34,12.3-5-.9-6.77-6.42-5.91-11.11C67,109.34,74.08,110.14,80.44,110.21Z"/>
        <path class="cls-11" d="M36.87,129.23c1.41-2.56,3.32-1.1,5.11-.63.93,6.46,8.33,10.53,7.39,19.82C42,142.64,38.38,136.64,36.87,129.23Z"/>
        <path class="cls-11" d="M34.39,124.42c1.72,1.2,4.83,1.67,2.59,4.94C33.74,129,34.39,126.52,34.39,124.42Z"/>
        <path class="cls-5" d="M670.2,95.87c6.69,5.34,16,1.15,22.94,6.57,4.57,3.55,8.41,5.58.6,9.29-5.68,2.7-8.75,9.67-16,9.86.65-1.51,1-3.37,2-4.47,2.7-2.77,6.13-5.62,4.53-9.66-2.18-5.48-6.73-3.27-10.87-2.18-2.93.77-4.55-1.56-5.9-3.8Z"/>
        <path class="cls-10" d="M654.35,126.35c.17,6.62-1.69,10.5-7.73,10.48-4.43,0-7.8-2.47-6.8-7,.88-4,.35-10.06,7-10.34C652.24,119.23,654.06,122.82,654.35,126.35Z"/>
        <path class="cls-3" d="M355.06,302.76s-3.48.74-2.11,2.11,12.59,4.24,19.77,1.33c6.43-2.61,4.62-6.76,4.13-11.28l-13.47-2.17c-.45,5.26-5,7.16-8.32,10"/>
        <path class="cls-3" d="M479.21,300.86s3.48.75,2.11,2.11-12.58,4.24-19.76,1.33c-6.44-2.61-4.63-6.76-4.13-11.28l13.46-2.17c.46,5.26,5,7.16,8.32,10"/>
        <path class="cls-10" d="M54.43,12.15c-6.07,8.51-4,19.34-3.09,29C51.8,46,52,51,50.5,55.67S44.58,63.58,43,68.37A16.73,16.73,0,0,0,45.85,84c1.74,2.2,5.65-.77,3.93-3C44.53,74,51,65.78,55.35,60.37c2.9-3.6,5.69-7.29,7.2-11.72a18.6,18.6,0,0,0-.73-13.29c-1.55-3.87-4.62-9-2.52-13.24L54.73,20.2c-3.51,9.58.73,19.74-1.72,29.42-.79,3.12,4,4.45,4.82,1.33,1.25-5,.94-10,.61-15.06-.32-4.84-.59-9.73,1.11-14.36,1-2.65-3.3-4.46-4.57-1.93-2.2,4.42-1.24,9.24.56,13.61s3.82,8.39,2.51,13.1c-1.21,4.34-4.14,7.92-6.91,11.37-2.93,3.65-5.88,7.39-7.33,11.9s-1.32,10,1.65,13.9l3.93-3a11.63,11.63,0,0,1-1.5-11.09c.82-2.13,2.46-3.84,3.82-5.62a22.44,22.44,0,0,0,3.55-6.56c3.13-9.22.18-18.93,0-28.33-.11-5,.55-10,3.53-14.18a2.53,2.53,0,0,0-.9-3.42,2.56,2.56,0,0,0-3.42.9Z"/>
        <path class="cls-10" d="M47.84,80.6a9.5,9.5,0,0,1-4.07-8.49c.21-4.34,4.14-7,6.37-10.43,5.23-8,4.13-18.1,4.14-27.19,0-5.25.39-10.64,3-15.32,1.57-2.81-2.75-5.33-4.32-2.52C47.73,26,49.9,36.75,49.28,47,49,51.57,48,56.39,45.13,60.13c-1.56,2-3.5,3.76-4.74,6a13.65,13.65,0,0,0-1.63,6.28,14.51,14.51,0,0,0,6.56,12.48c2.71,1.75,5.22-2.58,2.52-4.31Z"/>
        <path class="cls-10" d="M43.74,73.33C42.4,69,44.4,64.57,46,60.59a70.36,70.36,0,0,0,4-13.3c.9-4.62,1.5-9.3,2.39-13.92s1.87-9.25,4.26-13.23c1.65-2.77-2.67-5.28-4.32-2.52-4,6.61-4.89,14.81-6.1,22.28a112.4,112.4,0,0,1-2.26,11.36,112.72,112.72,0,0,1-3.91,10.68C38.59,66,37.6,70.39,38.92,74.66c.94,3.06,5.77,1.75,4.82-1.33Z"/>
      </g>
    </g>
  </g>
</svg>
