<svg xmlns="http://www.w3.org/2000/svg" width="143.55" height="320.25" viewBox="0 0 143.55 320.25">
  <defs>
    <style>
      .cls-1 {
        fill: #ec008c;
      }

      .cls-2 {
        fill: #fff;
      }

      .cls-3 {
        fill: #662d91;
      }
    </style>
  </defs>
  <title>Asset 2</title>
  <g id="Layer_2" data-name="Layer 2">
    <g id="singer">
      <g>
        <circle class="cls-1" cx="61.15" cy="66.08" r="29.58"/>
        <polygon class="cls-1" points="31.57 66.08 16.89 30.59 37.48 48.34 37.48 8.74 49.36 38.95 63.74 0 71.82 38.5 90.72 22.96 82.75 45.88 107.54 42.82 90.72 66.08 31.57 66.08"/>
        <circle class="cls-2" cx="70.2" cy="66.08" r="6.47"/>
        <circle class="cls-2" cx="52.68" cy="66.08" r="6.47"/>
        <path class="cls-1" d="M82.43,193.69a40.77,40.77,0,0,0,1.09-7.56c.86-15.39,1.75-30.83,1.53-46.25,4.45,3.56,9,6.42,14.68,4.82,4.65-1.31,9.19-4.57,13.3-7.25a140.94,140.94,0,0,0,13.81-10.33c4.33-3.65,6.52-9.84,3.59-15.54-2.65-5.13-9.13-7.41-13.69-4.08l-6.22,4.56a11.35,11.35,0,0,0-2.09,2c-.58.42-1.16.85-1.75,1.26-3,2.1-6.89,3.74-9.83,6-1.42-1.51-3.91-2.89-5.28-4l-2.39-1.94a2.9,2.9,0,0,0-.19-.29c-4.07-5.72-7.52-11.79-14.3-13.26a54.8,54.8,0,0,0-17.34-.93A23.14,23.14,0,0,0,42,103.82a9.73,9.73,0,0,0-3.74,3.89,11.45,11.45,0,0,0-1.33,1.42Q19.29,131.6,2.81,155.18c-3.35,4.8-4.12,11.37,0,16.06,3.48,3.95,10.77,4.83,14.14,0Q27,156.89,37.45,143c0,.1,0,.2,0,.3.05.58.1,1.18.14,1.78,0,.22,0,.43,0,.66q-.51,24.18,1.09,48.31a15.51,15.51,0,0,0,.45,2.78c-.06.11-.1.23-.15.34.22,2.87.25,5.72.32,8.71l0,.64c.42,3.8.93,7.6,1.35,11.4q1.58,8,3.26,16c.31,4.47.5,6.19-1.38,10-1.66,3.34-3.31,6.68-4.86,10.09a273.43,273.43,0,0,0-15.62,44.45c-3.63,14.05,15.66,20.05,19.29,6a239.51,239.51,0,0,1,16.2-44.56,79.12,79.12,0,0,0,5.28-12.66,3.67,3.67,0,0,1,.49-1.25c.83-2.24,2.1-4.35,3-6.5A18.59,18.59,0,0,0,67.6,235a29.93,29.93,0,0,0-.33-7.29c-1.43-7.18-3.7-14.33-5.46-21.33A11.74,11.74,0,0,0,60.9,204a37.41,37.41,0,0,1,4.09.8q24.77,54.09,46.31,110c2.16,5.62,9.41,6.92,13.68,4.08,5.11-3.39,5.76-9.9,3.59-15.54Q107.12,247.61,82.43,193.69Z"/>
        <g>
          <path d="M114.37,96.68c1.26-1.24,1.25-1.26,2.47.07.29.32.54.67.82,1q4.61,5.35,9.19,10.73c2.74,3.2,5.49,6.39,8.21,9.61a1,1,0,0,1,.08.92c-.79,1-1.66,1.88-2.5,2.81l-23.49-20.09C111,100,112.69,98.32,114.37,96.68Z"/>
          <path class="cls-3" d="M98.19,96l11.48-11.67c-1.29-1.89-6.47-2.8-9.84-.41A8.38,8.38,0,0,0,98.19,96Z"/>
          <path class="cls-3" d="M101.25,99.06a8.1,8.1,0,0,0,4.66,1.87c.2,0,.45,0,.58.08,1,.83,1.72.26,2.46-.49,1.83-1.88,3.69-3.73,5.54-5.58a1.66,1.66,0,0,0,.42-2.27c-.46-.86-.35-2-.67-3A15,15,0,0,0,113,87.4Z"/>
          <path class="cls-3" d="M136.32,119.69c-.88.85-1.7,1.62-2.47,2.44a.78.78,0,0,0,.1.73c.92.72,1.57,1.87,2.93,1.9l.09,0c1.55,1.33,3.45,2.23,4.71,3.93a4.06,4.06,0,0,1-.42,5.1,3.52,3.52,0,0,1-4.84.63,52.09,52.09,0,0,1-4.26-4,5.41,5.41,0,0,0-6.25-1.42,5.07,5.07,0,0,0-2.86,6c.06.29.56.49.85.73.09-.31.31-.64.24-.92a4.1,4.1,0,0,1,1.91-4.61,3.85,3.85,0,0,1,4.83.64c1.36,1.27,2.72,2.54,4,3.91a5.16,5.16,0,0,0,7.54-7c-.26-.3-.56-.57-.81-.88a19.17,19.17,0,0,1-2.86-3.76A12.52,12.52,0,0,0,136.32,119.69Z"/>
          <path d="M98.58,97.74c.32.34.52.72.79.8a1.16,1.16,0,0,0,.92-.31c1.8-1.72,3.56-3.48,5.32-5.23,2-2,4.1-4.08,6.12-6.14.37-.37,1.1-.74.41-1.44s-1.18-.3-1.69.21c-3.68,3.69-7.35,7.36-11,11.05C99.14,97,98.91,97.33,98.58,97.74Z"/>
        </g>
        <path class="cls-1" d="M131.24,113.14,131,113a.47.47,0,0,0-.09-.52l-5.24-5.8a.43.43,0,0,0-.4-.15s0-.1,0-.15c0-.64-1-.64-1,0a5.69,5.69,0,0,0,.86,2.67,15,15,0,0,0,1.48,2.43,6.3,6.3,0,0,0,4.45,2.62A.5.5,0,0,0,131.24,113.14Z"/>
      </g>
    </g>
  </g>
</svg>
